<?xml version="1.0" standalone="no"?>
<!DOCTYPE svg PUBLIC "-//W3C//DTD SVG 1.1//EN" "http://www.w3.org/Graphics/SVG/1.1/DTD/svg11.dtd" >
<svg xmlns="http://www.w3.org/2000/svg">
<metadata>
<json>
{
	"fontFamily": "Neoteric-Font",
	"majorVersion": 2,
	"minorVersion": 1,
	"copyright": "SubSmith Production © 2015",
	"description": "Neoteric Font Icons\nFont generated by IcoMoon.",
	"fontURL": "http://production@subsmith.com",
	"version": "Version 2.1",
	"fontId": "Neoteric-Font",
	"psName": "Neoteric-Font",
	"subFamily": "Regular",
	"fullName": "Neoteric-Font"
}
</json>
</metadata>
<defs>
<font id="Neoteric-Font" horiz-adv-x="1024">
<font-face units-per-em="1024" ascent="960" descent="-64" />
<missing-glyph horiz-adv-x="1024" />
<glyph unicode="&#x20;" d="" horiz-adv-x="512" />
<glyph unicode="&#xe600;" d="M691.984 347.124h-359.844c-42.5 0-77.124-34.656-77.124-77.188 0-42.688 34.624-77.406 77.124-77.406h359.844c42.532 0 77.124 34.718 77.124 77.406 0.002 42.532-34.592 77.188-77.124 77.188zM691.984 228.938h-359.844c-22.406 0-40.656 18.376-40.656 41 0 22.468 18.25 40.75 40.656 40.75h359.844c22.406 0 40.656-18.282 40.656-40.75 0-22.626-18.25-41-40.656-41zM957.016 588.376h-80.282c-16.844 0-30.532 13.75-30.532 30.688v21.312c0 85.376-33.218 165.624-93.468 226-60.218 60.374-140.312 93.624-225.5 93.624h-208.28c-85.22 0-165.314-33.25-225.532-93.624-60.218-60.344-93.406-140.594-93.406-226v-384.75c0-85.438 33.188-165.688 93.406-226 60.218-60.376 140.312-93.626 225.532-93.626h386.062c85.218 0 165.312 33.25 225.562 93.624 60.218 60.312 93.406 140.562 93.406 226v265.72c0 36.968-30.030 67.032-66.968 67.032zM987.578 255.624c0-75.688-29.406-146.812-82.782-200.25-53.376-53.468-124.282-82.876-199.782-82.876h-386.060c-75.5 0-146.406 29.406-199.782 82.876-53.344 53.5-82.718 124.562-82.718 200.25v384.752c0 156.188 126.718 283.188 282.5 283.188h208.282c155.782 0 282.5-127 282.5-283.188v-21.312c0-37 30.062-67.124 67-67.124h80.282c16.844 0 30.562-13.718 30.562-30.594v-265.722zM332.14 552.968h179.844c42.532 0 77.156 34.656 77.156 77.25 0 42.624-34.624 77.344-77.156 77.344h-179.844c-42.5 0-77.124-34.718-77.124-77.344 0-42.594 34.624-77.25 77.124-77.25zM332.14 671.124h179.844c22.468 0 40.688-18.344 40.688-40.906 0-22.532-18.218-40.844-40.688-40.844h-179.844c-22.406 0-40.656 18.312-40.656 40.844 0 22.564 18.25 40.906 40.656 40.906z" data-tags="blogger" />
<glyph unicode="&#xe601;" d="M1005.796 960h-987.562c-10.062 0-18.218-8.188-18.218-18.218v-987.594c0-10 8.156-18.188 18.218-18.188h987.562c10.032 0 18.188 8.188 18.188 18.188v987.594c0 10.030-8.156 18.218-18.188 18.218zM530.204 923.562h96.032l-96.032-96v96zM530.204 776.032l147.532 147.532h116.25l-263.782-263.782v116.25zM530.204 608.25l315.312 315.312h116.282l-431.594-431.562v116.25zM36.422 429.782h96l-96-96v96zM36.422 282.25l135.5 135.5-11.094 11.312 26.532 0.718h112.876l-263.814-263.78v116.25zM36.422 114.438l315.312 315.344h116.282l-431.594-431.594v116.25zM493.796-27.5h-96l96 96v-96zM493.796 120l-147.532-147.5h-116.282l263.812 263.782v-116.282zM493.796 287.812l-315.312-315.312h-116.28l431.594 431.562v-116.25zM493.796 466.188h-457.374v457.374h457.376v-457.374zM987.546-27.5h-457.342v457.282h457.344v-457.282zM987.546 466.188h-96l96 96v-96zM987.546 613.75l-147.5-147.562h-116.282l263.782 263.812v-116.25zM987.546 781.532l-315.312-315.344h-116.25l431.562 431.624v-116.28z" data-tags="delicious" />
<glyph unicode="&#xe602;" d="M794.688 677.36c-126.438 0-229.312-102.906-229.312-229.406 0-126.438 102.876-229.312 229.312-229.312s229.312 102.874 229.312 229.312c0 126.5-102.876 229.406-229.312 229.406zM931.124 311.578c-36.5-36.468-84.938-56.532-136.438-56.532s-99.938 20.062-136.406 56.532c-36.406 36.376-56.468 84.812-56.468 136.376s20.062 100 56.468 136.406c36.406 36.468 84.844 56.532 136.406 56.532s100-20.062 136.406-56.532c36.438-36.406 56.5-84.844 56.5-136.406s-20.060-100-56.468-136.376zM229.344 677.36c-126.468 0-229.344-102.906-229.344-229.406 0-126.438 102.876-229.314 229.344-229.314 126.438 0 229.312 102.876 229.312 229.312 0 126.502-102.874 229.408-229.312 229.408zM39.188 480.796c6.75 39.376 25.312 75.156 53.75 103.594 28.468 28.468 64.282 47.094 103.624 53.75l35.406 6.062-198.812-198.876 6.032 35.47zM72.438 335.64c-13.188 18.376-22.938 38.624-28.938 60.312l-1.812 6.406 233.25 233.218 6.438-1.75c21.624-6 41.906-15.75 60.282-28.968l10.906-7.844-272.252-272.31-7.874 10.936zM419.468 415.172c-6.688-39.344-25.282-75.218-53.718-103.656s-64.25-47-103.624-53.688l-35.438-6.062 198.812 198.844-6.032-35.438zM416.968 493.546l-233.25-233.28-6.438 1.844c-21.782 6.094-42.032 15.844-60.282 28.938l-10.938 7.844 272.312 272.312 7.844-10.938c13.188-18.376 22.938-38.656 28.968-60.312l1.784-6.408z" data-tags="flickr" />
<glyph unicode="&#xe603;" d="M935.876-38.344l-407.252 987.594c-2.812 6.438-9.374 10.75-16.592 10.75-7.25 0-13.812-4.312-16.718-10.968l-406.876-986.814c-1.25-2.782-1.812-5.344-1.812-8.032 0-10 8.188-18.188 18.25-18.188h814.312c10.032 0 18.188 8.188 18.188 18.188 0 2.344-0.376 4.5-1.188 6.624l-0.312 0.846zM530.218-27.5v118.376l185.282 92.5c4.312 2.124 7.562 5.876 9.124 10.5 1.5 4.624 1.188 9.532-1 13.876-4.376 8.782-15.562 12.562-24.438 8.188l-168.968-84.312v86.406l107.282 53.594c4.376 2.124 7.562 5.876 9.124 10.468s1.188 9.532-0.968 13.906c-4.376 8.75-15.594 12.624-24.406 8.156l-91.032-45.406v77.062c0 10-8.156 18.188-18.188 18.188s-18.218-8.188-18.218-18.188v-169.312l-98.5 69.062c-8 5.532-19.812 3.438-25.406-4.5-2.782-3.938-3.844-8.75-3.032-13.562 0.876-4.75 3.5-8.938 7.5-11.75l119.438-83.752v-149.5h-361.78l380 921.5 379.968-921.5h-361.782z" data-tags="forrst" />
<glyph unicode="&#xe604;" d="M1024 97.89l-0.438 481.218c-0.032 6.594-3.656 12.688-9.438 15.876l-70.968 41c-3.156 1.938-6.438 2.876-9.782 2.876h-148.532l0.468 88.532 20.938 68.688c0.532 1.782 0.812 3.594 0.812 5.438l0.376 84.344c-0.032 9.968-8.218 18.062-18.218 18.062l-144.876 0.124c-7.532 0-14.124-4.5-16.906-11.438l-129.906-304.532c-6.782-11.782-14.344-21.718-23.156-30.656-26.532-26.344-61.532-40.75-98.688-40.75l-42.532 0.406v15.562c0 26.406-21.5 47.906-47.938 47.906h-237.31c-26.406 0-47.906-21.5-47.906-47.906v-474.718c0-26.376 21.5-47.876 47.906-47.876h237.312c26.438 0 47.938 21.5 47.938 47.876v15.376l146.344 0.062 75.468-75.438c3.718-3.876 8.406-5.906 13.406-5.968h350.062c5.062 0 9.75 2.032 13.218 5.718l87.124 87.468c3.346 3.406 5.222 7.906 5.222 12.75zM296.656 46.516h-260.188v497.562h260.188v-497.562zM987 561.922l-0.624-456.656-75.624-76.906h-334.628l-81.5 81.438h-161.468v370.312l40.312 0.124c49.188 0 93.344 18.25 126.594 51.376 11.594 11.75 21.438 24.75 29.376 38.812l126.906 297.188 114.562-0.094-0.75-64.718-21.782-71.594v-128.844h180.062l58.594-33.812-0.030-6.626z" data-tags="like" />
<glyph unicode="&#xe605;" d="M241.672 630.876h-203.876c-10.032 0-18.188-8.188-18.188-18.218v-658.468c0-10 8.156-18.188 18.188-18.188h203.876c10.062 0 18.188 8.188 18.188 18.188v658.466c0 10.032-8.126 18.22-18.188 18.22zM223.484-27.562h-167.468v621.938h167.468v-621.938zM138.734 960c-76.5 0-138.718-62.656-138.718-139.688 0-77.062 62.218-139.75 138.718-139.75 76.562 0 138.812 62.688 138.812 139.75 0 77.032-62.25 139.688-138.812 139.688zM138.734 717.062c-56.406 0-102.312 46.312-102.312 103.25s45.906 103.25 102.312 103.25c56.468 0 102.376-46.312 102.376-103.25s-45.906-103.25-102.376-103.25zM1005.172 492.438c-12.218 34.594-30.344 64.344-53.876 88.376-44.876 45.876-108.938 70.124-185.188 70.124-60.562 0-116.438-19.782-161.532-57.188l-18.782-15.562v33.438c-0.376 11.562-8.376 19.25-18.188 19.25h-195.562c-10.032 0-18.188-8.188-18.188-18.218v-658.468c0-10 8.156-18.188 18.188-18.188h195.5c10.062 0 18.218 8.188 18.25 18.25v345.56c0 41.688 9.5 75.25 27.406 97 17.718 21.532 44.188 32.438 78.656 32.438 22.938 0 92.75 0 92.75-129.438v-345.624c0.062-10 8.25-18.188 18.282-18.188h202.876c10.032 0 18.218 8.188 18.218 18.188v416.874c0.002 45.126-6.342 85.938-18.81 121.376zM987.546-27.562h-166.5v327.374c0 51.75-10.376 92.188-30.906 120.188-21.968 29.938-55.906 45.75-98.282 45.75-45.188 0-82.124-15.844-106.782-45.812-23.656-28.75-35.688-69.156-35.688-120.124v-327.376h-159.124v621.938h159.124v-70.406c0.032-10.032 8.218-18.218 18.218-18.218 6.75 0 12.876 3.688 16.062 9.594 2.312 4.188 56.5 99.094 182.438 99.094 66.25 0 121.312-20.438 159.188-59.124 41.312-42.124 62.25-104.156 62.25-184.25v-398.628z" data-tags="linkedin" />
<glyph unicode="&#xe606;" d="M106.354 703.5c-1.25-5.562-0.312-10.624 2.562-14.876l421.908-627.344c2.282-3.406 5.5-5.812 9.344-7.094l4.594-1.624 329.656-115c2.782-1.124 5.094-1.562 7.468-1.562 3.624 0 7.156 1.094 10.188 3.124 5.032 3.376 8.062 9.062 8.062 15.188l18 353.876c0.312 4.25-0.782 8.188-3.062 11.594l-421.908 627.342c-2.844 4.25-7.188 6.968-12.282 7.782l-2.876 0.624c-19.060 3.032-36.874 4.47-54.53 4.47-64.562 0-127.094-19.124-180.876-55.312-70.124-47.126-118.498-118.626-136.248-201.188zM545.73 104.5l-314.876 468.062 1.376 5.062c7.656 28.25 19.594 55.156 35.438 80.062 16.032 25.25 35.844 47.782 58.876 66.938l9.75 8.156 240.44-357.532c31.218-46.376 42.5-102.188 31.782-157.062-7.656-39-25.968-74.688-52.968-103.312l-9.818-10.374zM864.98-20.624l-64.624 22.562-1.718 5.438c-5.532 17.312 1.094 36.438 16.188 46.562 14.782 10.032 35.562 8.782 49.188-2.5l4.438-3.688-3.472-68.374zM870.668 91.438l-13.562 3.5c-21.376 5.438-44.344 1.5-62.594-10.75-18.344-12.312-30.594-32-33.562-53.938l-1.876-13.938-185.094 64.656 11.562 12.782c46.75 51.718 69.312 121.312 61.906 190.938l-2.312 21.562 19.124-10.25c60.844-32.75 135.344-38.312 200.156-14.75l16.188 5.876-9.936-195.688zM554.7 790.376l314.812-468.124-13.312-5.188c-24-9.312-49.188-14.062-75-14.062-13.562 0-27.25 1.376-40.688 3.968-54.876 10.718-102.312 42.218-133.5 88.624l-240.502 357.594 11.218 5.938c26.5 14.062 54.812 23.938 84.25 29.282 28.626 5.25 58.22 6.094 87.502 2.594l5.22-0.626zM371.916 918.938c29.718 5.438 60.282 6.124 90.25 2.062l5.094-0.688 60.814-90.438-20.908-0.406c-62.844-1.406-123.72-20.718-175.97-55.876-52.844-35.532-93.656-84.594-118.624-142.282l-8.282-19.25-60.844 90.5 1.282 4.938c7.532 29.344 19.656 57.188 35.968 82.812 21.344 33.5 49 61.844 82.25 84.188 33.282 22.378 69.97 37.314 108.97 44.44z" data-tags="livejournal" />
<glyph unicode="&#xe607;" d="M107.218 150.438c-59.094 0-107.218-48.126-107.218-107.22s48.124-107.218 107.218-107.218 107.218 48.124 107.218 107.218-48.124 107.22-107.218 107.22zM107.218-27.562c-39.032 0-70.782 31.75-70.782 70.782 0 39 31.75 70.718 70.782 70.718s70.75-31.718 70.75-70.718c0-39.032-31.718-70.782-70.75-70.782zM107.906 555.218h-89.5c-10.124 0-18.406-8.186-18.406-18.218v-178c0-10.062 8.282-18.218 18.406-18.218h88.812c79.5 0 154.25-30.968 210.438-87.188 56.218-56.156 87.156-130.844 87.156-210.376v-88.5c0-10.156 8.188-18.406 18.218-18.406h177.97c10.032 0 18.218 8.25 18.218 18.406v88.5c0 281.938-229.374 511.594-511.312 512zM582.75 43.218v-70.468h-141.468v70.468c0 89.218-34.782 173.094-97.876 236.188-63.124 63.094-147 97.844-236.188 97.844h-70.78v141.5h71.406c64.156-0.094 126.376-12.688 184.906-37.532 56.532-23.968 107.312-58.282 150.968-101.968 43.624-43.624 77.844-94.438 101.75-151.094 24.782-58.5 37.282-120.718 37.282-184.938zM107.906 960h-89.5c-10.124 0-18.406-8.188-18.406-18.218v-177.968c0-10.062 8.282-18.25 18.406-18.25h88.812c94.968 0 186.968-18.532 273.344-55.062 41.594-17.624 81.688-39.376 119.188-64.718 37.25-25.156 72.282-54.094 104.124-85.906 31.906-31.876 60.812-66.938 85.906-104.124 25.344-37.532 47.124-77.624 64.75-119.188 36.532-86.5 55.062-178.468 55.062-273.344v-88.5c0-10.156 8.188-18.406 18.25-18.406h177.938c10.032 0 18.218 8.25 18.218 18.406v88.5c0.002 505.122-410.936 916.402-916.092 916.778zM987.594-27.25h-141.532v70.468c0 99.844-19.532 196.562-58 287.468-18.438 43.688-41.344 85.876-68.094 125.438-26.5 39.282-56.906 76.124-90.312 109.532-33.5 33.468-70.344 63.844-109.468 90.282-39.5 26.688-81.688 49.594-125.438 68.094-90.938 38.468-187.656 58.030-287.532 58.030h-70.78v141.562l71.438-0.124c118.876-0.062 234.062-23.376 342.438-69.312 52.062-22.062 102.344-49.376 149.406-81.188 46.532-31.406 90.344-67.562 130.218-107.532 39.624-39.594 75.782-83.468 107.438-130.282 31.75-47 59.032-97.25 81.094-149.438 45.876-108.562 69.124-223.812 69.124-342.532v-70.466z" data-tags="rss" />
<glyph unicode="&#xe608;" d="M823.64-8.532c6.344 2.968 10.406 9.438 10.406 16.5v155.188c0 13.594-16.876 22.562-28.188 15.25-46.25-30.376-93.124-45.782-139.312-45.782-25.062 0-46.562 5.594-65.688 17.094-12.844 7.562-21.624 17.5-26.156 29.656-3.594 9.656-7.906 35.562-7.906 103.906v235.126h216.438c10 0 18.188 8.188 18.188 18.188v155.094c0 10-8.156 18.156-18.188 18.156l-216.438 0.062-0.062 231.938c0 10-8.188 18.156-18.188 18.156h-140.062c-9.188 0-16.938-6.844-18.062-15.938-6-48.532-16.968-88.782-32.688-119.718-15.438-30.562-36.25-57.124-61.938-79-25.5-21.75-56.624-38.688-92.438-50.438-8.032-2.376-13.406-9.562-13.406-17.594v-141.094c0.156-9.75 8.282-17.812 18.218-17.812h90.062v-327.876c0-47.876 5.032-83.876 15.438-110 10.532-26.406 29.376-51.438 56.032-74.376 26.282-22.562 58.218-40.156 95-52.156 36.218-11.968 78.406-18 125.468-18 41 0 79.75 4.188 115.188 12.438 34.624 8.094 73.376 22.094 115.25 41.562l3.032 1.47zM797.64 19.468l-6.844-3c-34.062-15.062-65.594-26-93.75-32.562-32.718-7.624-68.688-11.5-106.876-11.5-43.094 0-81.5 5.438-114.124 16.188-32.312 10.562-60.124 25.782-82.562 45.218-22.156 18.968-37.624 39.218-45.968 60.094-8.532 21.5-12.906 54-12.906 96.624v364.282h-108.25v109.438l7.312 2.844c32.376 12.624 61.218 29.624 85.75 50.5 29.282 24.938 53.094 55.282 70.812 90.25 14.624 28.876 25.624 64.594 32.624 106.188l1.594 9.562h105.906v-250.188h234.688v-118.594h-234.686v-271.532c0-24.376 0-89.156 10.218-116.624 7.532-20.188 21.532-36.376 41.594-48.188 54.688-32.812 130.062-27.812 199.188 4.5l16.282 7.562v-111.062z" data-tags="tumblr" />
<glyph unicode="&#xe609;" d="M1023.562 316.954l0.438 481.156c0 4.782-1.876 9.312-5.282 12.75l-86.844 87.25c-3.718 3.938-8.376 5.938-13.438 5.938h-350.154c-4.906-0.062-9.594-2.124-13.094-5.75l-75.688-75.626h-146.344v15.376c0 26.406-21.5 47.876-47.938 47.876h-237.312c-26.406-0.002-47.906-21.47-47.906-47.878v-474.686c0-26.406 21.5-47.906 47.906-47.906h237.312c26.438 0 47.938 21.5 47.938 47.906v15.562l11.312 0.124c18.968 0.188 30.938 0.25 31.218 0.25 37.218 0 72.218-14.438 98.594-40.624 8.876-9.032 16.468-18.938 22.594-29.562l130.468-305.438c2.876-7.218 9.468-11.718 17-11.718l144.876 0.062c10 0 18.188 8.156 18.218 18.156l-0.376 84.25c0 1.906-0.282 3.688-0.782 5.376l-21.438 72.094v85.282h148.532c3.376 0 6.656 0.938 9.5 2.688l71.062 40.968c5.942 3.342 9.598 9.466 9.628 16.124zM296.656 351.922h-260.188v497.562h260.188v-497.562zM928.438 293.61h-180.062v-128.844l22.282-74.844 0.25-61.438-114.562-0.062-126.656 296.844c-8.094 14.282-17.938 27.282-29.5 39.032-33.376 33.25-77.532 51.5-124.5 51.5l-42.532 0.188v370.186h161.468l81.5 81.5 334.624-0.094 75.624-76.844 0.656-463.376-58.592-33.748z" data-tags="unlike" />
<glyph unicode="&#xe60a;" d="M512 113.094c-41.782 0-75.812-34-75.812-75.812s34.032-75.812 75.812-75.812 75.812 34 75.812 75.812-34.030 75.812-75.812 75.812zM512-2.094c-21.718 0-39.376 17.688-39.376 39.376 0 21.75 17.656 39.376 39.376 39.376s39.376-17.624 39.376-39.376c0-21.688-17.658-39.376-39.376-39.376zM857.75 543.156l-3.438 3.376c-101.156 62.062-220.25 96.062-342.376 96.624-122-0.562-241.094-34.562-344.312-98.25-5.718-3.468-9.032-9.344-9.032-15.876 0-13.876 17.312-23.124 29-15 27.062 16.688 55.094 31.062 83.906 43.25 75.968 32.188 156.906 48.688 240.438 49.124 83.656-0.438 164.594-16.938 240.594-49.124 28.782-12.188 56.812-26.562 83.312-42.906 13.688-9.468 29.562 0.782 29.562 14.656 0 5.562-2.438 10.656-6.532 14.124h-1.122zM1016.25 788.656c-152.468 95.312-326.094 145.312-504.282 145.876-178.124-0.564-351.75-50.564-502.092-144.564l-0.094 0.124-2.032-1.438c-4.906-3.498-7.75-8.998-7.75-14.936 0-13.782 17.094-22.938 28.688-15.312 41.562 26 85 48.624 129.376 67.376 112.094 47.344 231.156 71.562 353.906 71.938 122.812-0.376 241.876-24.594 353.938-71.938 44.406-18.75 87.844-41.376 129.188-67.218 12.406-8.188 28.906 1.376 28.906 15.156-0.002 5.936-2.846 11.436-7.752 14.936zM702.124 297.656c-57.468 35.032-123.124 53.624-190.218 54.124-66.906-0.5-132.562-19.094-189.688-53.844-6.282-3.532-9.968-9.718-9.968-16.406 0-13.562 16.5-22.812 28.124-15.624 13.938 8.562 28.906 16.312 44.5 22.876 40.218 17 82.938 25.812 127.032 26.218 44.282-0.406 87-9.218 127.218-26.218 15.594-6.562 30.562-14.312 44.5-22.876 11.624-7.188 28.124 2.062 28.124 15.624 0.002 6.688-3.686 12.876-9.624 16.126z" data-tags="wifi" />
<glyph unicode="&#xe60b;" d="M438.406 548.876c0 3.438-0.938 6.75-2.75 9.624l-114.124 197.376c-3.25 5.406-9.124 8.688-15.562 8.688h-205.438c-10.062 0-18.25-8.188-18.25-18.25 0-3.5 1.062-6.938 2.968-9.938l109.406-188.156-165.5-288.594c-2-3.218-2.938-6.562-2.938-9.968 0-10.032 8.124-18.218 18.188-18.218h204.468c6.718 0 12.844 3.688 16.032 9.594l171.438 299.406c1.312 2.404 2.062 5.372 2.062 8.436zM238.312 267.938h-162.436l155.312 270.812c1.812 3 2.656 6.188 2.656 9.5 0 3.25-0.812 6.438-2.438 9.124l-1.624 2.782-97.624 167.968h163.312l103.75-179.312-160.908-280.874zM997.782 941.782c0 10.032-8.188 18.218-18.188 18.218h-205.344c-6.312 0-12.094-3.188-15.438-8.562l-335.656-589.562c-2-3.25-2.938-6.532-2.938-9.938 0-3.5 0.968-6.782 2.876-9.75l221.408-397.5c3.344-5.438 9.156-8.688 15.532-8.688h203c10.062 0 18.188 8.188 18.188 18.188 0 3.188-0.75 6.156-2.25 8.876l-2.972 5.248 0.032 0.124-211.408 383.44 330.47 580.312c1.782 3 2.688 6.28 2.688 9.594zM628.032 361.094c-1.624-2.782-2.438-5.844-2.438-9.094 0-3.376 0.938-6.656 2.688-9.468l1.688-3.282 202.282-366.812h-161.5l-211.408 379.438 325.5 571.624h163.376l-320.188-562.406z" data-tags="xing" />
<glyph unicode="&#xe60c;" d="M511.984 960c-282.312 0-511.968-229.688-511.968-512s229.656-512 511.968-512 512 229.688 512 512-229.688 512-512 512zM315.14 881.062c3.906 1.75 7.876 3.5 11.844 5.156 116.938 49.594 252.938 49.624 370.124-0.032 54.406-23 103.624-55.688 146.218-97.062l8.718-8.5-8.968-8.188c-36.562-33.438-75.718-64.376-116.406-91.876-48.75-32.938-100.688-61.688-154.25-85.438l-8.906-3.906-5.312 8.156c-66.094 101.124-148.594 189.312-245.218 262.094l-15.468 11.624 17.624 7.972zM43.422 529.876c6.124 35.344 16.344 70.062 30.376 103.218 23.968 56.688 58.25 107.532 101.938 151.188 24.438 24.438 51.468 46.218 80.312 64.656l6.5 4.156 6.312-4.468c45.624-32.438 88.75-68.938 128.282-108.376 45.188-45.188 86.218-94.938 122.032-147.876l8.156-12.124-11.656-8.188c-47.876-17.718-97.062-31.75-146.124-41.812-65.938-13.468-133.688-20.312-201.376-20.312-37.782 0-76.376 2.25-114.75 6.624l-12.062 1.376 2.060 11.938zM156.828 131.562l-7.844 9.282c-31.124 36.656-56.438 77.718-75.188 122.032-24.78 58.624-37.374 120.906-37.374 185.124 0 7.188 0.188 14.344 0.5 21.406l0.532 12.282 12.188-1.438c39.094-4.438 78.968-6.688 118.532-6.688 128.062 0 253.062 23.124 371.562 68.688l9.094 3.5 4.906-8.376c21.562-36.876 40.938-75.5 57.532-114.688l11.156-27.468-12.406-3.406c-165.878-45.030-319.534-132.124-444.408-251.812l-8.782-8.438zM689.546 14.25l-0.188-7.718-7.188-2.782c-54.25-20.75-111.5-31.25-170.188-31.25-64.188 0-126.438 12.532-185.062 37.312-50 21.124-95.688 50.5-135.844 87.25l-9.032 8.25 8.844 8.468c41.156 39.406 85.782 75.468 132.718 107.156 53.562 36.188 110.624 67.156 169.688 92.124 42.438 17.968 86.624 33.124 131.376 44.968l10.376 2.782 3.438-10.25c12.624-37.906 23.062-76.718 30.938-115.344 13.5-65.812 20.312-133.594 20.312-201.406 0-6.498-0.062-13.060-0.188-19.56zM981.922 374.438c-5.876-38.188-16.562-75.688-31.718-111.562-23.938-56.562-58.218-107.438-101.938-151.124-31.344-31.344-66.718-58.094-105.156-79.438l-16.812-9.376-0.188 19.282c-0.844 107.532-18.124 213.406-51.376 314.718l-4.032 12.25 12.656 2.562c94.188 19.032 193.562 24.312 288.282 15.812l12.156-1.062-1.874-12.062zM987.11 422.688l-12.188 1.124c-100.812 9.188-206.624 3.032-307.25-18.062l-9.5-2-3.532 9c-18.406 46.718-40.468 92.562-65.5 136.188l-6.282 10.938 11.5 5.188c99.906 45.156 191.782 105.876 273.124 180.376l9.062 8.312 7.624-9.624c27-33.844 49.188-71.188 66.032-111.062 24.782-58.5 37.344-120.782 37.344-185.062 0-4.312-0.062-8.656-0.124-13.062l-0.31-12.254z" data-tags="dribbble" />
<glyph unicode="&#xe60d;" d="M750.406 557.812c0 10.062-8.124 18.25-18.188 18.25h-130.438v146.75c0 10.876 8.812 19.688 19.656 19.688h128.376c10.032 0 18.218 8.188 18.218 18.188v181.094c0 10.032-8.188 18.218-18.218 18.218-1.594 0-190.406-0.688-190.406-0.688-52.188-4.062-100.406-27.344-136.032-65.624-35.782-38.5-55.5-88.688-55.5-141.25v-176.376h-93.718c-10.062 0-18.188-8.188-18.188-18.25v-181c0-10.032 8.124-18.188 18.188-18.188l93.718-0.062 0.032-404.376c0-10 8.188-18.188 18.188-18.188h197.468c10.032 0 18.218 8.188 18.218 18.188v426.126h110.376c8.876 0 16.438 6.376 17.938 15.124l20.062 159.25c0.188 1.19 0.25 2.158 0.25 3.126zM696.094 416.75h-130.688v-444.25h-161.124v422.532h-111.938v144.594h111.938v212.812c0 43.312 16.25 84.656 45.75 116.438 29.062 31.25 68.406 50.438 110.812 53.968l170.75 0.594v-144.532h-110.156c-30.906 0-56.032-25.156-56.032-56.094v-183.188h146.156l-15.468-122.874z" data-tags="facebook" />
<glyph unicode="&#xe60e;" d="M1006 830h-100.5v102.5c0 10-8.5 18.5-18.5 18.5s-18-8.5-18-18.5v-102.5h-100.5c-10 0-18-8.5-18-18.5 0-10.5 8-19 18-19h100.5v-102c0-11 8-19 18-19s18.5 8 18.5 19v102h100.5c10 0 18 8.5 18 19 0 10-8 18.5-18 18.5zM650 951h-278.5c-140 0-254-102-254-226.5 0-125 114-227 254-227 10 0 20.5 1 30.5 2l18 2-6-17.5c-5-14-7-29-7-43.5 0-12 1-23 4-34.5l5-18-18.5 4c-29.5 6.5-60 10-90.5 10-169.5 0-307-102.5-307-228.5s137.5-228.5 307-228.5 307 102.5 307 228.5c0 73.5-48 142.5-128 185.5-27 19-42.5 49-42.5 81.5 0 33.5 17.5 65 46 83 84 40.5 136 117 136 201 0 64-31 125.5-84.5 168.5l-26 21h135.5c9 0.5 17 8.5 17 18.5s-8 18-17.5 18.5zM507 298.5c23-17.5 42-38.5 54.5-60.5 11.5-20.5 17.5-42.5 17.5-64.5s-6-43.5-17.5-64.5c-12.5-22-31.5-43-54.5-60.5-25.5-19-55-34.5-88.5-45-35-11.5-72.5-17-111.5-17s-76.5 5.5-111.5 17c-33.5 10.5-63 26-88.5 45-23 17.5-42 38.5-54.5 60.5-11.5 21-17.5 42.5-17.5 64.5s6 44 17.5 64.5c12.5 22 31.5 43 54.5 60.5 25.5 19.5 55 34 88.5 45 70 22.5 153 22.5 223 0 33.5-11 63-25.5 88.5-45zM527.5 856.5c39.5-36 61.5-83 61.5-132 0-49.5-22-96.5-61.5-132-12-10.5-25-20-39-27.5-6-2.5-11-5-15.5-8-5.5-3-10.5-4.5-15-6.5-27.5-10-56.5-15.5-86.5-15.5-30.5 0-59.5 5.5-87 15.5-26 10-49.5 24-69.5 42-39.5 35.5-61.5 82.5-61.5 132 0 49 22 96 61.5 132 20 17.5 43.5 32 69.5 41.5 55 21 118.5 21 173.5 0 26-9.5 49.5-24 69.5-41.5z" data-tags="googleplus" />
<glyph unicode="&#xe60f;" d="M976.11 960h-928.22c-26.406 0-47.874-21.468-47.874-47.876v-928.188c0-26.436 21.468-47.936 47.874-47.936h928.218c26.406 0 47.876 21.5 47.876 47.938v928.186c0 26.408-21.468 47.876-47.874 47.876zM987.546-27.5h-951.124v592.5h234.938l-9.312-17c-23.032-41.812-35.188-89.312-35.188-137.312 0-157.25 127.906-285.188 285.124-285.188 157.25 0 285.188 127.938 285.188 285.188 0 48-12.188 95.438-35.188 137.312l-9.344 17h234.906v-592.5zM336.11 586.562c47 46.938 109.438 72.812 175.876 72.812s128.906-25.876 175.906-72.812c46.968-47 72.844-109.468 72.844-175.876 0-66.5-25.876-128.938-72.844-175.938-46.968-46.938-109.406-72.812-175.906-72.812-66.438 0-128.906 25.876-175.876 72.876-47 46.938-72.876 109.376-72.876 175.876 0 66.406 25.876 128.874 72.876 175.874zM987.546 601.406h-263.5l-3.406 3.656c-53.782 57.688-129.844 90.782-208.656 90.782-78.782 0-154.812-33.094-208.624-90.782l-3.376-3.656h-263.562v322.156h82.25v-186.624c0-10.032 8.124-18.218 18.188-18.218s18.218 8.188 18.218 18.218v186.624h82.218v-186.624c0-10.032 8.188-18.218 18.218-18.218s18.218 8.188 18.218 18.218v186.624h713.812v-322.156zM511.984 244.094c91.812 0 166.532 74.718 166.532 166.594 0 91.812-74.718 166.5-166.532 166.5s-166.5-74.688-166.5-166.5c0-91.876 74.688-166.594 166.5-166.594zM511.984 540.75c71.75 0 130.124-58.312 130.124-130.062s-58.376-130.124-130.124-130.124c-71.718 0-130.062 58.376-130.062 130.124s58.344 130.062 130.062 130.062zM768.484 686.25h118.656c10.032 0 18.218 8.188 18.218 18.218v118.656c0 10.032-8.188 18.218-18.218 18.218h-118.656c-10.062 0-18.218-8.188-18.218-18.218v-118.656c0-10.030 8.156-18.218 18.218-18.218zM786.672 804.938h82.25v-82.25h-82.25v82.25z" data-tags="instagram" />
<glyph unicode="&#xe610;" d="M1005.75 584.876h-118.656c-10.032 0-18.188-8.188-18.188-18.218v-100.468h-713.844v100.468c0 10.032-8.156 18.218-18.188 18.218h-118.656c-10.032 0-18.218-8.188-18.218-18.218v-237.312c0-10.032 8.188-18.218 18.218-18.218h987.532c10.032 0 18.218 8.188 18.218 18.218l0.032 237.31c0 10.032-8.188 18.22-18.25 18.22zM987.532 347.624h-951.126v200.814h82.218v-118.656h786.718v118.656h82.188v-200.814z" data-tags="myspace" />
<glyph unicode="&#xe611;" d="M823.664 327.306c56.952 73.848 88.336 176.674 88.336 289.572 0 44.404-9.136 87.868-27.16 129.234-17.898 41.18-43.652 78.104-76.634 109.866-70.092 67.496-167.098 104.702-273.082 104.702-66.462 0-128.232-11.484-183.712-34.138-50.788-20.778-95.376-50.504-132.616-88.304-67.838-68.844-106.796-160.278-106.796-250.898 0-52.914 10.482-101.758 30.292-141.186 16.708-33.17 39.616-59.266 68.152-77.636 11.17-6.664 24.752-0.344 27.536 11.172l29.76 126.012c0.5 2.034 0.752 3.598 0.752 5.226 0 2.222-0.44 4.474-1.22 6.446l-0.784 2.44c-5.068 15.928-7.542 33.418-7.542 53.382 0 67.528 24.814 130.486 69.904 177.33 48.284 50.162 114.246 76.634 190.754 76.634 67.808 0 123.882-19.714 162.122-56.982 36.206-35.234 55.292-84.55 55.292-142.564 0-78.042-16.74-150.294-47.126-203.458-38.018-66.494-83.078-80.452-114.182-80.452-24.156 0-45.874 9.888-59.578 27.162-13.018 16.396-17.304 37.642-12.11 59.828 6.008 25.284 14.080 51.696 21.964 77.166 14.738 48 28.57 92.81 28.57 128.734 0 28.476-7.95 53.226-23 71.626-17.052 20.902-41.868 31.98-71.656 31.98-35.39 0-68.030-17.554-91.904-49.316-22.938-30.508-35.578-71.72-35.578-116.060 0-41.022 9.952-73.064 15.896-88.522l1.25-3.286-71.438-303.59c-20.402-86.616-2.158-204.836 1.72-227.68 3.974-17.71 22.688-20.872 31.824-10.576 0.938 1.002 90.212 102.702 115.842 195.918 4.036 14.738 16.522 63.836 26.504 103.202l4.192 16.552 13.738-10.138c32.386-23.906 74.722-37.644 116.216-37.644 47.438 0 92.152 10.61 132.864 31.512 39.242 20.146 73.756 49.342 102.638 86.734zM588.164 245.606c-55.262 0-105.14 30.26-121.444 59.578-7.354 15.708-30.884 12.424-34.638-2.564-0.312-1.284-32.982-131.080-39.742-155.834-9.856-35.766-31.448-77.696-64.24-124.696l-18.336-26.318-2.504 31.952c-3.098 39.896-4.538 97.126 6.382 143.316 10.452 44.434 68.402 290.696 72.596 308.594 0.534 1.972 0.784 3.57 0.784 5.196 0 3.004-0.72 5.882-2.098 8.51-2.878 6.322-15.988 37.644-15.988 81.482 0 72.252 39.958 128.828 90.964 128.828 18.742 0 33.386-6.228 43.4-18.462 9.514-11.61 14.738-28.882 14.738-48.596 0-30.416-13.018-72.722-26.786-117.468-8.072-26.19-16.396-53.258-22.748-80.044-7.792-33.264-1.064-65.524 19.024-90.872 20.652-26.064 52.82-41.052 88.18-41.052 57.608 0 109.394 35.172 145.852 98.88 33.512 58.578 51.974 137.246 51.974 221.576 0 68.058-22.938 126.386-66.306 168.692-45.25 44.058-110.146 67.402-187.624 67.402-44.090 0-85.488-8.010-123.13-23.782-35.736-14.926-67.34-36.486-93.906-64.084-51.662-53.696-80.138-125.636-80.138-202.644 0-20.59 2.41-39.866 7.134-57.326l0.782-2.816-23.216-98.068-14.676 19.338c-6.572 8.574-12.456 18.086-17.524 28.226-17.304 34.296-26.41 77.478-26.41 124.79 0 38.458 8.292 78.792 24.032 116.656 16.742 40.46 41.054 76.978 72.254 108.644 50.126 50.88 141.216 111.554 290.322 111.554 49.97 0 97.22-8.7 140.56-25.878 40.648-16.084 76.728-39.208 107.236-68.654 29.508-28.444 52.54-61.458 68.5-98.13 15.988-36.798 24.062-75.348 24.062-114.652 0-104.888-28.666-199.828-80.704-267.23-52.538-68.092-123.98-104.044-206.618-104.044z" data-tags="pinterest" />
<glyph unicode="&#xe612;" d="M980.828 369.5l-2.282 3.624 0.624 4.188c3.532 23.376 5.312 47.188 5.312 70.688 0 63.75-12.5 125.624-37.124 184-23.844 56.25-57.876 106.782-101.282 150.124-43.344 43.376-93.844 77.438-150.188 101.312-79.906 33.812-169.094 44.812-254.624 31.812l-4.188-0.624-3.594 2.25c-44.998 28.188-96.936 43.126-150.248 43.126-75.688 0-146.812-29.468-200.25-82.906-53.5-53.532-82.968-124.656-82.968-200.282 0-53.376 14.906-105.406 43.094-150.438l2.25-3.562-0.594-4.188c-3.468-23.25-5.25-47-5.25-70.624 0-63.782 12.5-125.656 37.124-183.906 23.782-56.282 57.844-106.844 101.218-150.25 43.376-43.344 93.938-77.406 150.188-101.218 79.812-33.75 167.562-44.844 254.688-31.906l4.188 0.656 3.594-2.282c44.906-28.188 96.844-43.094 150.28-43.094 75.624 0 146.75 29.5 200.25 82.968 53.5 53.5 82.938 124.594 82.938 200.218 0 53.376-14.938 105.376-43.156 150.314zM740.796-27.5c-50.188 0-98.438 14.876-139.438 43.062l-6.124 4.188-7.344-1.312c-24.968-4.312-50.468-6.532-75.906-6.532-116.5 0-226 45.344-308.344 127.75-82.344 82.376-127.718 191.844-127.718 308.344 0 25.438 2.218 51 6.562 75.844l1.25 7.282-4.188 6.124c-28.188 41.188-43.124 89.468-43.124 139.562 0 136.062 110.75 246.75 246.812 246.75 50 0 98.188-14.906 139.406-43.124l6.156-4.218 7.376 1.25c24.876 4.438 50.406 6.688 75.812 6.688 116.438 0 225.938-45.376 308.344-127.782 82.344-82.376 127.718-191.938 127.718-308.376 0-25.312-2.188-50.812-6.594-75.844l-1.282-7.344 4.188-6.124c28.25-41.188 43.188-89.438 43.188-139.5 0-136.064-110.686-246.688-246.75-246.688zM511.984 481.468c-46 0-92 14.124-126.156 38.782-16.468 11.876-44.062 37.124-44.062 72.656s27.594 60.782 44.062 72.688c32.594 23.594 78.562 37.094 126.156 37.094 47.624 0 93.624-13.5 126.188-37.124 14.624-10.562 38.062-31.688 43.094-61.218h0.968l0.124-11.438c0-10.032 8.188-18.218 18.25-18.218 10.032 0 18.188 8.188 18.188 18.218l-0.188 3.156c-2.406 78.938-95.094 143.124-206.624 143.124-113.938 0-206.624-65.624-206.624-146.282 0-81.562 92.688-147.906 206.624-147.906 27.062 0 53.124-7.968 76.156-15.062 25.468-7.718 46.094-17.718 63.624-30.438 18.562-13.438 49.718-42 49.718-82.5s-31.156-69.062-49.718-82.5c-17.532-12.688-38.156-22.688-61.406-29.812-49.312-15.062-107.406-15.062-156.75 0-23.188 7.124-43.876 17.124-61.376 29.812-18.562 13.438-49.688 42-49.688 82.5 0 10.5-8.188 18.688-18.188 18.688-10.062 0-18.25-8.188-18.25-18.25 0-88.688 101.344-160.562 225.876-160.562 124.562 0 225.876 71.876 225.876 160.124 0.002 89.124-103.436 164.468-225.874 164.468z" data-tags="skype" />
<glyph unicode="&#xe613;" d="M905.25 80.468c0 79.656-64.782 144.468-144.406 144.468h-245.188c-38.968 0-64.594 19.812-76.406 31.624-11.782 11.812-31.624 37.376-31.624 76.376v85.75h353.188c79.656 0 144.438 64.812 144.438 144.438s-64.782 144.438-144.438 144.438h-353.19v108.032c0 79.594-64.78 144.406-144.436 144.406-79.626 0-144.438-64.812-144.438-144.406v-482.656c0-53.594 10.5-105.562 31.218-154.438 19.968-47.25 48.562-89.75 85.032-126.25 36.5-36.438 78.938-65 126.156-85 49.062-20.75 101.032-31.25 154.5-31.25h245.156c79.656 0.062 144.438 64.876 144.438 144.468zM760.844-27.5h-245.188c-96.282 0-186.812 37.438-254.906 105.562-68.062 68-105.562 158.5-105.562 254.876v482.656c0 59.532 48.468 107.968 108 107.968 59.468 0 107.938-48.312 108.032-107.75v-144.688h389.594c59.562 0 108.032-48.438 108.032-108s-48.468-108.032-108.032-108.032h-389.596v-122.156c0-52.032 26.5-86.344 42.282-102.156 15.812-15.782 50.062-42.282 102.156-42.282h245.188c59.532-0.062 108-48.5 108-108.032 0-59.56-48.468-107.966-108-107.966z" data-tags="twitter" />
<glyph unicode="&#xe614;" d="M818.264 275.214c65.346 84.064 115.66 160.472 149.628 227.162 34.594 67.844 53.282 127.846 55.624 178.316 3.468 76.814-11.812 134.096-45.468 170.284-27.188 29.314-66.064 44.908-115.566 46.344-2.906 0.156-5.656 0.218-8.376 0.218-66.718 0-130.25-26.438-183.752-76.438-47.564-44.564-85.034-105.002-108.314-174.816-0.312-1.532-0.876-4.75-0.876-5.75 0-12.532 14.25-21.438 25.376-16.75 5.062 2.218 50.218 21.376 70.22 21.376 18.312 0 30.968-4.126 38.656-12.626 11.22-12.5 11.47-35.124 9.688-51.876-2.688-31.438-24.124-78.876-63.72-141.376-39.438-62.312-61.376-81.19-70.938-86.876l-7.656-4.562-6.312 6.344c-9.188 9.218-27.656 38.69-48.25 132.284-7.5 29.812-20.812 105.47-39.72 225.41-8.906 56.532-24.718 98.22-48.344 127.408-27.938 34.626-66.5 50.408-113.19 45.564-37.406-3.376-87.158-32.938-156.628-93.064-45.688-41.438-144.19-128.72-144.19-128.72-3.938-3.472-6.156-8.442-6.156-13.628 0-4.406 1.624-8.658 4.532-12l45.126-58.376c6.156-8.406 17.782-10.156 25.782-4.25 44.532 31.22 64.814 40.844 68.438 42.47l5.438 2.438 5.124-3.094c5.844-3.532 15.408-13.032 27.72-38.344 12.094-24.688 24.718-60.532 37.5-106.564l79.782-292.536c44.938-120.472 100.002-180.722 164.128-180.722 50.314 0 104.626 24.032 166.064 73.406 57.066 45.936 118.754 112.47 188.63 203.344zM463.57 34.898c-46.5 0-91.096 53.312-129.034 154.192l-79.752 292.224c-15.032 54.064-29.438 93.75-44.126 121.346-6.906 13-27.906 52.408-62.158 52.408-3.688 0-7.282-0.438-10.75-1.282-10.032-2.562-32.032-14.782-60.47-33.626l-8.844-5.876-25.408 32.75 8.032 7.124c43.5 38.376 83.938 74.564 123.158 110.096 76.876 66.47 116.346 82.532 135.908 84.344 35.594 3.562 61.438-7.094 81.752-32.25 19.188-23.75 32.876-60.814 40.658-110.158 19.312-122.41 32.406-196.848 40.124-227.662 11.5-52.312 23.376-90.562 36.314-117.284 5.718-11.844 23.188-48 54.624-48 28.75 0 61.218 31.844 108.534 106.534 43.284 68.282 65.908 119.69 69.252 157.126 3.656 35.188-2.75 62.064-18.906 80.002-14.782 16.376-36.876 24.688-65.72 24.688-6.846 0-14.252-0.844-22.126-2.406l-23.344-4.718 10.876 21.188c19.782 38.438 45.064 72.626 73.064 98.846 46.534 43.532 101.502 66.532 158.876 66.532 2.438 0 4.968 0 7.5-0.124 39.69-1.124 69.16-12.468 89.754-34.688 26.718-28.814 38.782-77.19 35.75-143.816-4.188-91.97-70.69-221.472-197.598-384.882l-1.218-1.532c-133.5-173.282-242.72-261.096-324.722-261.096z" data-tags="vimeo" />
<glyph unicode="&#xe615;" d="M1021.086 177.888c11.188 28.438-12.062 63.688-30.5 87.75-23.938 31.25-56.938 63.782-80.438 85.532l-2.25 2.032c-16.876 15.75-29.062 27.062-36.906 36.156-8.906 10.312-10.062 15.282-10.062 18.468-0.282 1.468 0.032 6.688 6.938 18.438 6.782 11.562 18.25 26.624 31.438 43.624l3.468 4.562c82.5 106.876 135.062 180 114.938 221.062-7.718 15.688-23.688 23.624-47.5 23.624h-163.812c-39.906 0-49.624-24.686-58.156-46.436l-3.968-9.876c-17.624-41.438-42.124-87.968-65.56-124.532-21.688-33.844-36.876-50.782-45.812-59l-14.624-13.532-4.312 19.438c-0.718 3.188-1.376 7.282-1.876 12.562-1.812 19.688-0.438 46.624 1.312 80.75 1.25 24.5 2.562 50.376 3.124 79.562 0.312 16.312 0.656 33.188-7.75 48.344-11.876 21.25-36.094 29.030-53.282 33-58.72 13.656-126.876 10.938-177.718-6.156-32.25-10.844-49.312-24.218-50.75-39.842-0.75-7.968 2.782-15.782 9.438-20.782 4.062-3.062 9.25-5.124 15.75-6.344 8.782-1.594 15.938-6.844 21.876-16.032 23.438-36.532 18.124-118.562 7.188-162.468l-6.406-21-13.25 11.656c-9.468 8.344-25.782 26.75-49.906 67.062-20.312 33.968-43.562 79.594-62.188 122.062l-3.062 7.25c-8.188 19.688-18.376 44.312-61.938 44.312h-133.942c-20.562 0-35.812-6.374-44.094-18.406-5.406-7.782-10.218-21.406-2.406-41.968 5.062-13.594 33.718-78.188 76.094-155.562 68.906-125.938 126.562-198.906 162.78-237.938 45.438-48.938 94.062-81.5 148.656-99.562 47.594-15.688 92.592-17.812 130.344-17.812l37.876 0.25c19.812 0 31.812 8 38.438 14.688 9.906 10.062 15 24.406 14.75 41.406-0.624 38.376 6.968 60.594 14.312 68.624l4.562 4.968 6.562-1.562c5.312-1.25 14.5-5.624 28.188-19.25 15.062-15.062 27.312-29.124 37.124-40.5 33.374-38.188 59.686-68.376 124.030-68.376h131.656c15.532 0 27.876 2.062 37.782 6.282 14.594 6.286 21.032 16.222 23.844 23.472zM978.086 186.388c-4.938-1.188-11.218-1.75-18.624-1.75h-131.656c-47.812 0-64.094 18.624-96.592 55.812-10.25 11.812-23 26.532-38.812 42.344-34.25 34.156-68.124 38.844-90.438 16.156-21.906-22.218-25.876-64.062-25.344-95.312 0.062-6-1.094-9.75-2.032-11.876l-2.124-4.594-4.844-1.532c-1.5-0.5-4.094-1-7.782-1l-37.812-0.282c-74.688 0-161.938 8.156-252.376 105.656-63.062 68-120.5 163-157.53 230.718-37.156 67.782-63.376 125.218-72.094 146.156l-6.562 15.812h151.062c11.124 0 17.624-1.938 20.688-6.438 2.25-2.938 4.344-7.5 7.656-15.5l3.344-7.812c7.75-17.782 35.688-79.876 69.062-134.062 36.062-58.624 63.562-84.75 89.124-84.75 20.312 0.124 34.906 15.594 42.218 44.812 11.968 48.062 19.312 142.376-11.906 191-3.062 4.75-6.532 9.094-10.282 13l-13.406 13.876 18.562 5.094c16.562 4.562 43.376 10 77.342 10 23.656 0 47.344-2.656 70.314-7.968 24.406-5.624 28.406-12.938 29.718-15.312 3.376-6.062 3.438-15.312 3.156-29.812-0.594-29.062-1.906-55.312-3.094-78.438-1.812-35.688-3.25-63.75-1.188-85.938 1.624-17.718 6.188-42.812 27-56.25 5-3.188 10.75-4.876 16.688-4.876 14.282 0 38.532 7.938 84.156 76.624 26.468 39.938 54.216 91.75 74.124 138.688l4.344 10.688c3.906 10.032 6.188 15.376 8.688 18.468l2.282 2.844 3.532 1c2.5 0.718 5.782 1.062 9.75 1.062l181.094-1-2.532-12.75c-1.938-9.812-9-28.876-31.718-64.032-22.406-34.594-53.906-75.406-79.282-108.188l-3.468-4.532c-29.094-37.688-48.188-62.438-45.782-88.688 2.282-24.938 21.032-42.312 58.376-76.938l2.25-2.062c29.376-27.188 54.156-53.188 71.75-75.188 20.124-25.124 27.094-40.376 29.406-48.75l3.156-11.438-11.562-2.742z" data-tags="vkontakte" />
<glyph unicode="&#xe616;" d="M909.046 518.532h-794.092c-26.376 0-47.844-21.5-47.844-47.906v-486.688c0-26.438 21.468-47.938 47.844-47.938h794.094c26.376 0 47.844 21.5 47.844 47.938v486.686c-0.002 26.408-21.47 47.908-47.846 47.908zM920.484-27.5h-816.968v509.562h816.968v-509.562zM322.672 598.094h36.218l0.47 147.844 64.344 214.062h-35.688l-46.406-188.594-50 188.594h-35.25l66.312-217.312zM669.954 593.938c9.562 0 29 4.062 51.938 31.376l20.188 24.062v-51.282h29.624v260.938h-29.624v-207.938l-2.47-3.094c-0.812-1.062-20.532-25.688-39.844-25.688-9.468 0-25.438 3.938-25.438 30.594v206.126h-29.562v-225.782c0-39.312 17.656-39.312 25.188-39.312zM513.328 592.782c38.282 0 64 25.968 64 64.594v139.186c0 37.562-26.938 64.844-64 64.844-39.782 0-65.5-25.468-65.5-64.844v-139.188c0-44.062 20.844-64.592 65.5-64.592zM479.016 791.876c0 23.438 13.032 38.532 33.25 38.532 21.25 0 34.438-14.75 34.438-38.532v-132.062c0-22.876-13.406-38.218-33.376-38.218-19.906 0-34.312 16.094-34.312 38.218v132.062zM783.016 42c43.312 0 63.5 22.938 63.5 72.124v8.876h-28.624v-7.312c0-19.624 0-49.282-33.75-49.282-33.25 0-33.25 33.25-33.25 49.282v62.406h95.624v57.376c0 45.156-20.094 68.062-59.688 68.062-38.562 0-64.5-27.344-64.5-68.062v-121.344c0-21.688 5.906-72.126 60.688-72.126zM750.89 236.062c0 10.656 0 43.062 33.782 43.062 22 0 33.218-14.5 33.25-43.062v-38.876h-67.032v38.876zM627.484 45.812c8.468 0 34.282 0 34.282 48.062v149.968c0 37.344-12.562 56.282-37.282 56.282-15.218 0-27.75-11.438-35.562-21.062l-1.468-1.812c13.688 5.812 29.876 2.188 38.124-8.844 5.062-6.718 7.624-16.032 7.624-27.624v-139.532c0-11.438-2.124-19.624-6.656-25.624-8.188-10.718-26.062-13-39.844-6.094-0.406 0.218-0.812 0.406-1.25 0.656l3.532-4.438c11.126-13.938 22.626-19.938 38.5-19.938zM540.984 392.844h27.624v-343.562h-27.624v343.562zM235.734 49.282h33.406v313.218h58.25v30.344h-149.874v-30.344h58.218zM372.516 45.188c7.25 0 15.656 2.594 23.844 7.312 8.75 5 17.376 12.562 25.656 22.5l11.844 14.25c-7.188-7.312-19.844-18-32.438-18-9.25 0-24.75 3.844-24.75 29.718v195.718h-27.094v-214.5c0-24.53 7.75-36.998 22.938-36.998zM442.234 296.688h27.124v-247.406h-27.124v247.406z" data-tags="youtube1" />
<glyph unicode="&#xe617;" d="M1015.214 631.894c-8.156 69.314-26.5 111.752-59.624 137.66-31.19 24.406-72.536 31.718-129.16 35.594-70.346 4.75-187.878 7.594-314.446 7.594-126.502 0-244.036-2.844-314.444-7.594-56.596-3.874-97.94-11.188-129.128-35.594-33.124-25.908-51.5-68.346-59.626-137.66-11.718-99.626-11.718-268.066 0-367.726 8.124-69.344 26.5-111.786 59.626-137.598 31.314-24.562 72.626-31.812 129.128-35.624 70.034-4.812 187.568-7.688 314.444-7.688h0.032c126.88 0 244.414 2.876 314.446 7.688 56.5 3.812 97.784 11.062 129.128 35.594 33.124 25.844 51.468 68.286 59.624 137.628 11.72 99.66 11.72 268.1 0 367.726zM979.058 268.386c-14.094-119.692-55.876-134.378-155.098-141.128-69.346-4.718-185.972-7.5-311.946-7.5-125.97 0-242.63 2.782-311.976 7.5-99.22 6.75-141.002 21.438-155.096 141.128-11.468 97.442-11.468 261.944 0 359.258 14.094 119.752 55.876 134.44 155.096 141.128 69.002 4.75 185.63 7.562 311.944 7.562 126.318 0 242.976-2.812 312.008-7.562 99.19-6.688 140.972-21.376 155.066-141.128 11.472-97.314 11.472-261.816 0.002-359.258zM685.894 464.17l-264.35 137.85c-2.282 1.124-5 1.782-7.876 1.782-10.062 0-18.25-8.188-18.25-18.22v-275.444c0-13.032 15.25-22.312 26.938-15.968l265.724 138.628c4.656 2.938 7.938 8.718 7.938 15.092 0.002 6.874-3.904 13.124-10.124 16.28zM431.888 340.204v215.378l206.538-107.692-206.538-107.686z" data-tags="youtube2" />
<glyph unicode="&#xe618;" d="M544.124 685.75c-4.876 0-9.438-1.906-12.876-5.344-1.75-1.718-3.124-3.812-4.032-6.124-16.156-36.312-36.532-70.032-60.782-100.75-5.282-7-4.562-17.312 1.812-23.688 6.282-6.25 17.062-6.906 24.062-1.468v6.594l5.876 0.062c25.532 33.344 46.124 68.032 62.376 104.624l0.344 0.812c2.906 6.844 1.344 14.688-3.906 20-3.404 3.376-7.998 5.282-12.874 5.282zM397.218 497.094c-4.156 0-8.218-1.468-11.438-4.124-30.812-24.188-64.282-44.312-99.718-60-2.688-1.124-4.75-2.5-6.5-4.188-7.094-7.124-7.062-18.688 0-25.812 5.282-5.312 13.812-6.876 20.562-3.624 38.376 17.062 74.438 38.718 107.312 64.406 1.124 0.844 1.938 1.468 2.656 2.218 3.468 3.438 5.344 8.032 5.344 12.938 0 4.844-1.876 9.406-5.312 12.812-3.436 3.468-8.062 5.374-12.906 5.374zM724.438 496.906l-1.624-0.688c-37.75-16.844-73.438-38.376-106.188-63.906l-1.876-1.5c-7.938-8.032-7.906-19.5-0.844-26.594 6.218-6.188 16.782-6.876 23.782-1.624l1.376 1.032c30.25 23.718 63.438 43.656 98.812 59.406 2.718 1.094 4.812 2.5 6.624 4.25 7 7.062 7.032 18.688-0.062 25.75-5.188 5.092-13.282 6.656-20 3.874zM542.876 351.468c-4.876 0-9.438-1.906-12.876-5.312-0.812-0.812-1.438-1.562-2-2.344-26-33.344-47.656-69.344-64.562-107.5-3.312-7.094-1.844-15.376 3.562-20.782 6.812-6.812 18.876-6.876 25.75 0.062 1.688 1.688 3.094 3.782 4.032 6.124 15.968 35.938 36.124 69.406 60.032 99.812 6.032 7.376 5.5 18.062-1.062 24.624-3.44 3.41-8.002 5.316-12.876 5.316zM874 810.032c-96.688 96.686-225.25 149.936-362 149.936s-265.312-53.25-362-149.936c-96.718-96.688-150-225.25-150-362.032s53.282-265.344 150-362.032c96.688-96.688 225.25-149.938 362-149.938s265.312 53.25 362 149.938c96.718 96.688 150 225.25 150 362.032s-53.282 265.344-150 362.032zM848.25 111.718c-45.376-45.376-98.312-80.562-157.312-104.438-56.938-23.124-117.156-34.812-178.938-34.812-14.812 0-29.532 0.656-43.75 2l-9.438 0.876-0.876 9.468c-1.344 14.5-2 29.218-2 43.718 0 22.032 1.5 44.124 4.5 65.688 1.124 6.312-0.75 12.376-4.968 16.594-6.906 6.906-18.844 6.906-25.718 0-2.562-2.532-4.25-5.718-5-9.218l-0.376-2.5c-4.75-35.218-5.938-69.312-3.812-103.032l1-15.312-14.938 3.406c-25.312 5.75-50.062 13.532-73.594 23.124-58.968 23.876-111.906 59.062-157.282 104.5-45.438 45.376-80.578 98.25-104.5 157.25-9.578 23.562-17.344 48.312-23.094 73.562l-3.39 14.938 15.282-0.938c34.406-2.25 69.14-0.876 103.36 3.876l1.438 0.376 0.844-0.032c3.438 0.718 6.594 2.406 9.124 4.906 7.124 7.062 7.094 18.688-0.032 25.812-4.156 4.188-10.218 6.062-16.156 4.968-36.078-5.032-71.766-6.032-109.828-2.562l-9.5 0.844-0.86 9.562c-1.328 14.624-2 29.312-2 43.688 0 61.718 11.704 121.938 34.812 178.938 23.906 58.938 59.062 111.876 104.5 157.312 45.406 45.376 98.312 80.562 157.25 104.438 70.438 28.624 147.25 39.75 222.688 32.876l9.5-0.876 0.876-9.5c1.312-14.5 2-29.188 2-43.718 0-22.406-1.562-44.906-4.656-66.968-0.75-5.75 1.156-11.312 5.218-15.438 6.844-6.876 18.876-6.876 25.75 0.062 3.124 3.156 5 7.376 5.25 11.876 4.688 34.718 5.938 69.032 3.812 102.906l-1 15.282 14.938-3.406c25.312-5.75 50.062-13.532 73.594-23.094 58.938-23.876 111.876-59 157.282-104.406 45.438-45.438 80.594-98.376 104.468-157.344 9.594-23.562 17.406-48.344 23.124-73.624l3.406-14.906-15.312 0.968c-33.906 2.124-68.218 0.876-102.032-3.688-5.406-0.344-9.594-2.188-12.782-5.376-3.438-3.438-5.312-8-5.312-12.876 0-4.844 1.876-9.406 5.312-12.876 3.438-3.438 8-5.312 12.812-5.312l4 0.25c34.532 4.938 73.844 5.876 109.312 2.5l9.438-0.876 0.876-9.5c1.312-14.624 2-29.282 2-43.624 0-61.812-11.688-122-34.812-179-23.936-59.062-59.092-111.936-104.498-157.312z" data-tags="baseball" />
<glyph unicode="&#xe619;" d="M1023.998 872.11c0 23.624-9.188 45.75-25.876 62.436-33.312 33.312-91.468 33.406-124.844 0-1.282-1.312-344.556-344.558-383.71-383.682l-462.4-495.368-6.032 0.938c-6.062 0.938-11.688-0.968-15.782-5.062-4.468-4.5-6.312-10.812-4.876-17.062l1.156-5 91.25-91.186 5.032-1.188c1.376-0.312 2.812-0.5 4.218-0.5 4.844 0 9.438 1.876 12.874 5.312 4.124 4.188 6 9.968 5.032 15.812l-0.938 6 4.438 4.188 491.148 458.526c-0.032-0.032 380.214 380.15 383.402 383.4 16.752 16.718 25.908 38.872 25.908 62.436zM93.26-10.816l-40.438 40.406 56.156 60.218 44.436-44.406-60.154-56.218zM180.008 70.214l-46.186 46.25 56.186 60.092 50.218-50.124-60.218-56.218zM266.79 151.184l-51.936 51.998 56.186 60.248 55.936-55.998-60.186-56.248zM353.57 232.306l-57.686 57.686 56.156 60.188 61.75-61.75-60.22-56.124zM972.404 835.422l-382.964-382.994-149.028-139.124-63.53 63.438 138.872 148.808 383.306 383.31c19.562 19.562 53.844 19.562 73.344 0 9.812-9.782 15.218-22.812 15.218-36.718s-5.406-26.906-15.218-36.72z" data-tags="baseball_bat" />
<glyph unicode="&#xe61a;" d="M874.054 810.032c-96.686 96.686-225.28 149.936-362.062 149.936-136.75 0-265.312-53.25-362.032-149.938-96.702-96.686-149.952-225.248-149.952-362.030s53.266-265.344 149.984-362.032c96.688-96.688 225.25-149.938 362-149.938 136.782 0 265.376 53.25 362.062 149.938s149.938 225.25 149.938 362.032-53.25 265.344-149.938 362.032zM869.086 762.124c35.468-40.218 63.656-85.718 83.656-135.156 20.688-51.062 32.282-104.844 34.438-159.938l0.438-11.062-11-0.812c-113.25-8.594-217.718-53.032-302.188-128.562l-8.062-7.218-128.624 128.594 323.28 323.312 8.062-9.158zM519.148 912.594l0.844 11.032 11.032-0.468c55.188-2.156 109-13.718 159.968-34.438 49.5-20 94.938-48.188 135.124-83.656l9.124-8.094-323.248-323.22-128.594 128.594 7.218 8.062c75.564 84.562 120.002 189.032 128.532 302.188zM197.898 805.062c40.156 35.468 85.656 63.656 135.124 83.656 43.968 17.844 90.032 28.906 136.906 32.938l13.594 1.188-1.188-13.562c-4.094-47.032-15.218-93.062-32.968-136.876-20.032-49.438-48.188-94.938-83.688-135.124l-8.062-9.156-168.874 168.842 9.156 8.094zM38.29 490.032c4.11 47.124 15.218 93.188 32.968 136.938 20.032 49.438 48.188 94.938 83.672 135.156l8.062 9.156 168.876-168.876-9.124-8.062c-40.124-35.438-85.624-63.624-135.124-83.75-43.75-17.75-89.828-28.812-136.922-32.938l-13.61-1.188 1.202 13.564zM154.93 133.844c-35.484 40.25-63.64 85.75-83.672 135.188-20.688 51-32.266 104.782-34.422 159.938l-0.438 11.062 11 0.812c113.156 8.532 217.656 52.968 302.156 128.562l8.094 7.218 128.594-128.656-323.25-323.25-8.062 9.126zM504.868-16.594l-0.812-11.032-11.062 0.468c-55.188 2.156-109 13.718-160 34.438-49.438 20-94.938 48.188-135.094 83.656l-9.156 8.094 323.25 323.218 128.624-128.656-7.218-8.094c-75.532-84.436-119.97-188.904-128.532-302.092zM826.118 90.938c-40.188-35.468-85.624-63.656-135.124-83.656-43.688-17.782-89.75-28.906-136.938-33l-13.594-1.188 1.218 13.562c4.094 47.094 15.188 93.124 32.968 136.938 20.032 49.438 48.188 94.938 83.656 135.124l8.062 9.156 168.876-168.844-9.124-8.092zM985.71 405.968c-4.094-47.124-15.188-93.188-32.968-136.938-20-49.438-48.188-94.938-83.656-135.188l-8.062-9.124-168.876 168.876 9.156 8.062c40.156 35.5 85.624 63.656 135.124 83.688 43.876 17.812 89.938 28.876 136.876 33l13.594 1.188-1.188-13.564z" data-tags="basketball" />
<glyph unicode="&#xe61b;" d="M681.172 380.782c-18.032 48.844-60.376 179.906-72.938 218.906l-0.876 2.812 0.532 2.906c5.282 27 31.782 164.562 36.594 221.218 2.782 32.562-8.406 64.376-31.468 89.532-25.594 27.844-62.094 43.844-100.126 43.844-39.812 0-76.312-16-101.906-43.844-23.062-25.156-34.25-56.906-31.5-89.532 4.844-56.656 31.344-194.218 36.624-221.218l0.532-2.906-0.876-2.812c-12.562-39-54.906-170.062-72.938-218.906-23.438-63.344-39.062-119.624-39.062-188.282 0-96.75 27.5-187.188 75.344-248.25 3.782-5.344 9.376-8.25 15.282-8.25h235.156c5.594 0 10.782 2.5 14.218 6.876 48.594 61.062 76.468 152.062 76.468 249.624 0.002 68.532-15.622 124.812-39.060 188.282zM415.828 829.782c-1.938 22.282 5.906 44.218 22 61.688 18.438 20.062 45.812 32.032 73.282 32.032h0.782c28.468 0 55.844-11.968 74.282-32.062 16.094-17.438 23.938-39.376 22-61.688-2.124-25.312-9.376-72.312-21.5-139.656l-1.688-9.406h-145.968l-1.688 9.406c-12.126 67.342-19.376 114.342-21.502 139.686zM448.36 630.75l-2.532 13.532h132.344l-2.562-13.532c-2.718-14.624-4.844-25.5-5.812-30.438l12.312-38.25h-140.218l12.312 38.25c-0.97 4.938-3.094 15.812-5.844 30.438zM624.046-22.688l-3.406-4.876h-217.28l-3.406 4.876c-16.718 24-30.844 53.688-40.876 85.938-12.532 40.438-18.844 83.938-18.844 129.25 0 63.25 14.656 115.938 36.75 175.624 9.094 24.624 26.094 75 50.468 149.624l2.594 7.876h163.906l2.594-7.876c24.376-74.624 41.376-124.968 50.468-149.624 22.094-59.688 36.75-112.376 36.75-175.624 0-45.438-6.312-88.906-18.844-129.218-10.030-32.282-24.154-61.97-40.874-85.97z" data-tags="bowling" />
<glyph unicode="&#xe61c;" d="M511.984 960c-282.312 0-511.968-229.688-511.968-512s229.656-512 511.968-512 512 229.688 512 512-229.688 512-512 512zM792.796 831.844c19.438-14.282 38.124-30.282 55.438-47.562 17.124-17.094 33-35.562 47.218-54.968l26.282-35.75-112.876 52.062-51.718 112.312 35.656-26.094zM234.64 834.344c28.656 20.594 59.688 38.032 92.282 51.844 11.688 4.938 23.532 9.376 35.5 13.376l42.25 14.062-83.75-90.688-122.188-14.468 35.906 25.874zM72.546 260.5l-13.5 42.062c-14.938 46.562-22.546 95.25-22.61 144.75l-0.046 43.876 60.594-108-24.438-122.688zM511.984-27.562c-50.75 0-100.624 7.906-148.25 23.562l-41.312 13.562 123.562 24.688 110.124-61.812h-44.124zM964.734 301.876c-4.25-13.188-9.124-26.124-14.5-38.938-14.124-33.376-32.124-65.188-53.5-94.562l-25.75-35.438 14.75 125.124 92.438 85.406-13.438-41.592zM985.172 399.5l-128.438-118.624c-3.75-3.25-5.938-7.468-6.376-12.062l-20.624-174.624-3.312-2.876c-21.376-18.812-44.624-35.812-69.124-50.562-43.938-26.376-91.562-45.438-141.5-56.688l-4.282-0.968-152.032 85.282c-4.844 3.124-9.438 3.906-14.438 2.812l-171.938-34.312-6.5 3.624c-34.062 20.75-63.938 44.282-90.876 71.25-28.562 28.562-53.406 60.562-73.766 95.188l-2.204 3.75 33.968 170.938c0.438 1.812 0.594 3.25 0.594 4.624 0 3-0.718 5.876-2.094 8.5l-85.484 152.438 0.954 4.312c6.172 27.812 14.954 55.25 26.078 81.562 20.268 47.936 48.112 91.936 82.832 130.812l2.876 3.282 172.188 20.406c4.312 0.438 8.282 2.5 11.282 5.656l117.968 127.656 4.312 0.438c15.188 1.468 30.906 2.188 46.75 2.188 64.218 0 126.5-12.562 185.124-37.312l8.75-3.938 72.562-157.624c1.812-4.124 5.062-7.344 9.062-9.188l158.688-73.25 4-9c24.812-58.688 37.376-121 37.376-185.188 0-14.75-0.688-29.594-2-44.124l-0.376-4.378zM666.454 587.938c-1.188 8.5-7.782 14.906-16.094 15.75l-229.812 36.438c-1.376 0.25-2.376 0.312-3.5 0.312-6.718 0-12.876-3.688-16.062-9.624l-107.156-210.376c-0.782-1.75-1.282-4.312-1.282-6.876 0-4.938 1.938-9.562 5.5-13.062l165.75-165.594c5.5-5.406 14.718-6.594 21.624-2.75l206 104.968c7.468 3.188 11.876 9.812 11.876 17.124 0 1.218-0.124 2.438-0.376 3.562l-36.468 230.128zM479.86 270.25l-146.876 146.782 94.312 185.156 205.188-32.5 32.5-205.124-185.124-94.314z" data-tags="football" />
<glyph unicode="&#xe61d;" d="M573.464 235.852l8.5 0.124c106.466 2.656 216.716 53.438 302.498 139.312 85.876 85.844 136.624 196.188 139.282 302.686l0.032 1.562c1.656 80.624-25.468 153.062-76.376 203.998-50 50.032-118.094 76.468-196.876 76.468-109.186 0-222.59-50.812-311.154-139.406-146.374-146.436-182.28-360.372-81.75-487.060l6.312-8-61.876-61.938-29.056 29.098c-3.468 3.468-8.062 5.376-12.906 5.376-4.812 0-9.406-1.906-12.844-5.376l-241.78-241.84c-7.094-7.124-7.094-18.688 0.032-25.812l83.842-83.938c6.906-6.812 18.876-6.812 25.75 0l241.716 241.936c3.5 3.438 5.376 8 5.376 12.876 0 4.844-1.876 9.438-5.344 12.844l-29.032 29.154 61.906 61.876 7.968-6.312c47.438-37.722 108.252-57.628 175.78-57.628zM102.218-20.208l-58.156 58.188 216.030 216.122 58.156-58.186-216.030-216.124zM578.058 288.040l-58.124 58.188 58.124 58.124 58.156-58.124-58.156-58.188zM636.214 513.976l-58.156-58.124-58.124 58.124 58.124 58.188 58.156-58.188zM603.808 597.914l58.124 58.186 58.154-58.186-58.154-58.124-58.124 58.124zM661.934 488.29l58.154-58.218-58.154-58.124-58.124 58.218 58.124 58.124zM687.682 513.976l58.124 58.188 58.124-58.188-58.124-58.124-58.124 58.124zM771.526 597.914l58.188 58.186 58.124-58.186-58.124-58.124-58.188 58.124zM855.432 681.818l58.124 58.218 58.156-58.218-58.156-58.124-58.124 58.124zM829.712 707.6l-58.188 58.124 58.188 58.188 58.124-58.188-58.124-58.124zM803.932 681.818l-58.124-58.124-58.124 58.124 58.124 58.218 58.124-58.218zM661.934 707.6l-58.124 58.124 58.124 58.188 58.154-58.188-58.154-58.124zM636.214 681.818l-58.156-58.124-58.124 58.124 58.124 58.218 58.156-58.218zM552.34 597.914l-58.154-58.124-58.158 58.124 58.158 58.186 58.154-58.186zM468.436 513.976l-58.124-58.124-58.124 58.124 58.124 58.188 58.124-58.188zM494.186 488.29l58.154-58.124-58.154-58.218-58.158 58.124 58.158 58.218zM671.372 287.040c-5.844-1.688-11.656-3.282-17.5-4.718l-39.938-9.876 48 47.968 27.936-27.938-18.498-5.436zM788.15 342.664c-15.876-10.656-32.5-20.376-49.376-28.844l-10.782-5.218-7.594 4.876-32.718 32.75 58.124 58.124 53.906-53.938-11.56-7.75zM879.588 423.226c-6.688-7.594-13.624-15-20.844-22.188-7.188-7.25-14.562-14.188-22.156-20.844l-8.032-7.124-57.032 57 58.188 58.218 56.968-57-7.092-8.062zM946.056 521.226c-8.532-17-18.25-33.624-29-49.562l-7.75-11.5-53.876 53.812 58.124 58.188 38.594-38.562-6.092-12.376zM977.432 606.102c-1.406-5.876-3-11.75-4.718-17.656l-5.5-18.438-27.876 27.876 47.718 47.966-9.624-39.748zM972.776 776.036c2.218-6.406 4.25-12.876 6-19.468l11-41.062-50.438 50.156 27.376 27.688 6.062-17.314zM897.838 878.286c8.594-6.312 16.594-13.25 23.876-20.562 7.188-7.188 14.062-15.188 20.438-23.75l5.876-7.938-34.468-34.5-58.124 58.124 34.468 34.5 7.934-5.874zM820.4 914.942c6.688-1.782 13.218-3.782 19.624-6.094l17.032-6.062-27.344-27.344-50.188 50.156 40.876-10.656zM803.932 849.662l-58.124-58.124-58.124 58.124 58.124 58.186 58.124-58.186zM652.496 908.848c5.812 1.688 11.656 3.282 17.5 4.718l39.998 9.938-48.060-48.062-27.938 27.968 18.5 5.438zM535.748 853.13c15.842 10.718 32.466 20.468 49.374 28.906l11.25 5.438 7.124-5.062 32.718-32.75-58.156-58.124-53.842 53.812 11.532 7.78zM444.31 772.662c6.688 7.562 13.594 15 20.814 22.188 7.218 7.218 14.594 14.156 22.094 20.812l8.094 7.156 57.030-57.094-58.156-58.124-56.97 57 7.094 8.062zM377.904 674.788c8.344 16.688 18.062 33.312 28.938 49.406l7.75 11.594 53.844-53.968-58.124-58.124-38.468 38.532 6.060 12.56zM346.466 589.79c1.406 5.876 2.968 11.75 4.688 17.562l5.438 18.624 27.968-28.092-47.688-47.688 9.594 39.594zM345.092 439.382l-10.718 40.906 210.030-210.094-40.936 10.75c-39.72 10.438-73.782 29.688-101.25 57.124-27.502 27.596-46.752 61.658-57.126 101.314z" data-tags="racket" />
<glyph unicode="&#xe61e;" d="M991.74 913.784c-1.124 4.032-2.688 6.718-4.938 8.968-2.188 2.188-4.876 3.75-7.782 4.624-71.718 21.626-145.592 32.47-220.092 32.47-202.69 0-393.25-78.906-536.564-222.188-198.172-198.22-270.86-488.158-189.734-756.69 1.188-3.344 2.656-5.718 4.61-7.656 2.25-2.25 4.89-3.812 7.89-4.624 72.016-21.75 145.64-32.532 219.922-32.532 202.688 0 393.25 78.906 536.596 222.218 197.78 197.814 270.656 487.252 190.092 755.41zM365.864-20.408c-33.312-4.656-67.25-7.032-100.908-7.032-65.594 0-130.876 8.876-194 26.438l-6.234 1.75-1.734 6.218c-26.796 96.406-33.328 195.596-19.406 294.876l3.204 22.718 341.798-341.78-22.72-3.188zM968.99 532.124c-14.844-64.5-38.5-126.624-70.282-184.562-32.844-59.812-74.156-114.812-122.812-163.44-48.782-48.75-103.784-90.062-163.47-122.812-54.938-30.188-113.876-53.062-175.062-68l-6.282-1.562-375.312 375.346 1.532 6.25c14.954 61.218 37.828 120.094 68 175.094 32.782 59.75 74.094 114.75 122.812 163.438 48.564 48.624 103.564 89.938 163.47 122.876 57.906 31.718 119.968 55.376 184.53 70.22 3.844 0.906 7.718 1.782 11.624 2.532l6.032 1.25 359.034-359.064-3.814-17.566zM983.302 617.094l-2.594-23.782-323.376 323.378 23.782 2.562c91.064 9.876 183.94 2.25 271.94-22.25l6.25-1.75 1.718-6.218c24.656-88.658 32.156-180.19 22.28-271.94zM562.050 607.688c-3.438-3.468-5.312-8.062-5.312-12.876 0-4.876 1.876-9.438 5.312-12.876l29.062-29.064-79.094-79.124-29.062 29.062c-6.906 6.938-18.844 6.938-25.718 0.032-3.468-3.468-5.376-8.032-5.376-12.876s1.906-9.406 5.344-12.844l29.062-29.062-79.094-79.124-29.062 29.032c-3.438 3.468-8 5.344-12.876 5.344s-9.438-1.876-12.876-5.344c-7.124-7.032-7.094-18.656 0-25.782l29.062-29-50.032-50.062c-7.094-7.062-7.094-18.624 0.032-25.75 6.844-6.876 18.844-6.876 25.75 0.032l50 50.032 29.062-29c6.906-7 18.876-6.938 25.75-0.062 3.438 3.468 5.344 8.032 5.344 12.876 0 4.876-1.906 9.438-5.344 12.844l-29.062 29.094 79.092 79.094 29.062-29.032c6.906-6.968 18.844-6.938 25.718-0.032 3.5 3.468 5.376 8.032 5.376 12.876s-1.876 9.406-5.344 12.844l-29.056 29.060 79.094 79.124 29.062-29.062c6.906-6.938 18.906-6.876 25.75 0 3.438 3.438 5.312 8 5.312 12.876 0 4.812-1.876 9.406-5.312 12.812l-29.062 29.124 50.034 50.032c7.094 7.094 7.094 18.656-0.032 25.782-6.812 6.812-18.814 6.876-25.752-0.032l-50-50.064-29.064 29.034c-6.906 6.968-18.874 6.938-25.75 0.062z" data-tags="rugby" />
<glyph unicode="&#xe61f;" d="M21.516 233.344c-9.5-19.094-15.938-39.406-19.156-60.466-3.156-20.878-3.156-42.002 0.062-62.754 6.718-43.312 26.72-82.686 57.814-113.78 19.532-19.596 42.408-34.784 68.002-45.16 53.814-21.782 116.438-19.438 168.47 6.252l656.606 324.598c12.436 6.124 23.748 14.252 33.624 24.032 23.874 23.942 37.060 55.754 37.060 89.626 0 33.876-13.188 65.688-37.060 89.562-18.034 18.064-40.658 30.126-65.472 34.876l-7.594 1.5-1.5 7.562c-4.842 24.938-16.842 47.532-34.75 65.44-18.156 18.060-40.752 30.092-65.468 34.782l-7.624 1.438-1.468 7.656c-4.812 24.842-16.844 47.438-34.812 65.438-18.002 18-40.626 30.064-65.41 34.814l-7.594 1.438-1.5 7.594c-4.812 24.908-16.874 47.502-34.75 65.438-18.060 18.032-40.688 30.062-65.436 34.782l-7.596 1.436-1.5 7.626c-4.876 24.938-16.876 47.564-34.782 65.5-23.94 23.876-55.784 37.064-89.596 37.064-33.844 0-65.658-13.188-89.626-37.128-9.062-9.062-17.844-22.812-22.25-30.218l-1.782-3.218-324.912-655.73zM280.55-9.94c-23.094-11.438-49.032-17.47-75.032-17.47-45.124 0-87.594 17.596-119.534 49.47-51.528 51.564-64.342 129.94-31.872 195.066l12.25 24.782 239.378-239.408-25.19-12.44zM340.208 19.532l-256.754 256.812 240.348 484.978 501.79-501.82-485.384-239.97zM379.084 872.824c1.376 2.406 10.064 16.876 17.156 23.936 34.126 34.156 93.564 34.156 127.658 0 22.814-22.812 31.158-55.5 23.814-85.5 30.156 7.438 63.252-1.5 85.5-23.782 22.812-22.782 31.158-55.5 23.846-85.5 29.812 7.406 63.25-1.532 85.468-23.844 22.784-22.75 31.128-55.5 23.814-85.438 29.938 7.438 63.218-1.562 85.5-23.876 22.812-22.812 31.188-55.47 23.842-85.47 30.066 7.594 63.224-1.594 85.444-23.812 35.186-35.218 35.186-92.47 0.060-127.656-7.094-7.064-15.154-12.816-23.966-17.19l-77.192-38.096-5.782 5.812-513.38 513.352 38.218 77.064z" data-tags="shuttlecock" />
<glyph unicode="&#xe620;" d="M1005.804 466.188h-119.906l-0.844 10.594c-13.874 182.436-161.874 330.406-344.25 344.28l-10.594 0.812v119.938c0 10.032-8.156 18.188-18.218 18.188-10.032 0-18.188-8.156-18.188-18.188v-119.938l-10.594-0.812c-182.406-13.876-330.406-161.844-344.282-344.282l-0.812-10.594h-119.906c-10.046 0-18.204-8.156-18.204-18.188s8.156-18.218 18.204-18.218h119.906l0.812-10.562c13.876-182.438 161.876-330.406 344.282-344.282l10.594-0.812v-119.938c0-10.032 8.156-18.188 18.188-18.188 10.062 0 18.218 8.156 18.218 18.188v119.938l10.594 0.812c182.376 13.876 330.376 161.844 344.25 344.282l0.844 10.562h119.906c10.062 0 18.188 8.188 18.188 18.218s-8.124 18.19-18.188 18.19zM493.804 110.562l-12.5 1.124c-34.782 3.062-68.688 11.562-100.75 25.124-40.25 17.032-76.376 41.376-107.376 72.438-31 31-55.376 67.124-72.376 107.312-13.562 32.124-22.062 66.032-25.124 100.75l-1.124 12.468h319.25v-319.216zM493.804 466.188h-319.25l1.124 12.5c3.094 34.782 11.562 68.688 25.124 100.782 17 40.218 41.376 76.344 72.376 107.344 31.124 31.062 67.25 55.468 107.376 72.438 32.062 13.562 65.968 22.062 100.75 25.124l12.5 1.124v-319.312zM848.368 417.312c-3.124-34.718-11.562-68.624-25.124-100.75-17.032-40.188-41.376-76.312-72.438-107.312-30.968-31.062-67.094-55.406-107.376-72.438-32.062-13.562-65.938-22.062-100.75-25.124l-12.468-1.124v319.218h319.282l-1.126-12.47zM530.21 466.188v319.312l12.468-1.124c34.812-3.062 68.688-11.562 100.75-25.124 40.188-16.968 76.312-41.376 107.376-72.438 31.062-31 55.406-67.124 72.438-107.312 13.562-32.124 22-66.032 25.124-100.812l1.124-12.5h-319.28z" data-tags="sight" />
<glyph unicode="&#xe621;" d="M363.096 141.468c1.156-0.124 117.752-11 213.596-11h0.032c39.812 0 70.562 1.844 91.468 5.5 77.94 13.812 147.41 53.438 218.692 124.688 170.848 170.878 183.816 435.976 28.906 591.010-69.906 69.876-165.44 108.346-268.942 108.346-117.376 0-234.72-50.032-322.034-137.314-71.314-71.344-110.908-140.814-124.626-218.66-15.062-85.44 5.25-302.942 5.468-305.128l0.5-5.344-200.846-200.848c-3.438-3.438-5.312-8-5.312-12.876s1.876-9.438 5.312-12.844l125.846-125.876c6.906-6.844 18.876-6.844 25.782 0l200.784 200.878 5.374-0.532zM232 558.162c0.844 15.876 2.188 29.188 4.032 39.562 12.376 70.126 48.782 133.44 114.564 199.222 38.688 38.72 83.126 69.408 132.064 91.22 47.158 20.876 96.22 32.688 145.908 35 49.406 2.376 97.096-4.75 141.376-20.876 45.658-16.688 86.064-42.376 120.126-76.438 34.062-34.064 59.75-74.5 76.406-120.126 16.19-44.376 23.22-92 20.846-141.346-2.344-49.846-14.158-98.908-35.034-145.876-21.718-48.844-52.344-93.284-91.124-132.064-65.876-65.784-129.19-102.22-199.316-114.596-10.344-1.812-23.282-3.124-39.532-4l-5.124-0.25-3.562 3.624-381.88 381.85 0.25 5.094zM144.032-20.222l-100.064 100.064 200.034 200.064-2.126 22.408c-3.718 39.782-8.718 108.596-10.344 171.502l-0.75 28.656 335.912-335.816-28.688 0.75c-67.688 1.688-139.658 7.282-171.502 10.312l-22.438 2.124-200.034-200.064z" data-tags="table_tennis" />
<glyph unicode="&#xe622;" d="M511.976 960c-282.312 0-511.952-229.688-511.952-512s229.64-512 511.954-512 512 229.688 512 512-229.688 512-512.002 512zM848.29 111.75c-43.688-43.718-94.562-78-151.188-101.938-58.5-24.782-120.75-37.312-185.124-37.312-64.312 0-126.594 12.532-185.094 37.312-56.594 23.938-107.438 58.218-151.156 101.876-43.688 43.718-77.984 94.594-101.938 151.188-24.782 58.624-37.36 120.906-37.36 185.124 0 64.188 12.578 126.468 37.36 185.094 23.954 56.624 58.25 107.468 101.938 151.156 43.624 43.624 94.468 77.938 151.188 101.938 117.156 49.656 253.032 49.656 370.188 0 56.75-24 107.594-58.312 151.188-101.938 43.688-43.688 77.968-94.532 101.938-151.156 24.782-58.624 37.344-120.906 37.344-185.094 0-64.218-12.562-126.5-37.344-185.124-23.972-56.594-58.254-107.47-101.94-151.126zM512.008 742.75c-162.532 0-294.782-132.25-294.782-294.75 0-162.532 132.25-294.75 294.782-294.75s294.75 132.218 294.75 294.75c0 162.5-132.218 294.75-294.75 294.75zM694.664 265.344c-48.782-48.812-113.624-75.688-182.656-75.688-69 0-133.906 26.876-182.656 75.688-48.812 48.78-75.688 113.656-75.688 182.656 0 69.032 26.876 133.938 75.688 182.688 48.75 48.75 113.656 75.624 182.656 75.624 69.032 0 133.876-26.876 182.656-75.688 48.812-48.688 75.688-113.594 75.688-182.624 0-69-26.876-133.876-75.688-182.656zM512.008 525.562c-42.782 0-77.532-34.812-77.532-77.562 0-42.782 34.75-77.562 77.532-77.562 42.75 0 77.532 34.782 77.532 77.562 0 42.75-34.782 77.562-77.532 77.562zM512.008 406.906c-22.656 0-41.124 18.438-41.124 41.094 0 22.624 18.468 41.062 41.124 41.062s41.094-18.438 41.094-41.062c0-22.656-18.438-41.094-41.094-41.094z" data-tags="target" />
<glyph unicode="&#xe623;" d="M511.986 960c-136.752 0-265.314-53.282-362.064-149.938-199.624-199.656-199.624-524.468 0-724.124 96.75-96.656 225.312-149.938 362.064-149.938 136.78 0 265.342 53.282 362.092 149.938 199.624 199.656 199.624 524.468 0 724.124-96.75 96.656-225.312 149.938-362.092 149.938zM50.984 565.156c5.406 21.218 12.188 42 20.25 61.812 23.876 58.938 59 111.876 104.438 157.344 45.532 45.406 98.438 80.594 157.344 104.438 19.938 8.156 40.782 14.968 61.844 20.282l6.312 1.624 231.938-231.968c47-47 72.844-109.468 72.844-175.906 0-66.468-25.844-128.938-72.844-175.906-46.938-46.968-109.438-72.844-175.876-72.844-66.468 0-128.968 25.876-175.938 72.876l-231.936 231.968 1.624 6.28zM987.578 448.032c0-61.812-11.688-122.062-34.812-179-23.876-58.968-59.032-111.906-104.468-157.312-45.438-45.438-98.376-80.624-157.282-104.5-56.968-23.094-117.218-34.812-179-34.812-61.814 0-122.064 11.718-179 34.812-58.938 23.876-111.876 59.062-157.312 104.562-45.438 45.344-80.594 98.282-104.468 157.25-23.124 56.938-34.812 117.188-34.812 179 0 14.5 0.656 29.25 2 43.75l2.282 24.25 214.844-214.938c53.876-53.812 125.468-83.5 201.656-83.5 76.156 0 147.782 29.688 201.688 83.532 111.188 111.188 111.188 292.094 0 403.312l-215 214.968 24.376 2.218c75.594 6.906 152.344-4.312 222.75-32.876 58.876-23.844 111.782-59.032 157.282-104.406 45.468-45.5 80.594-98.438 104.468-157.376 23.12-56.934 34.808-117.184 34.808-178.934z" data-tags="tennis" />
<glyph unicode="&#xe624;" d="M211.468 846.75c-3.438 3.406-8 5.312-12.876 5.312s-9.438-1.906-12.876-5.376l-83.872-83.904c-3.468-3.468-5.376-8.032-5.376-12.906 0-4.812 1.906-9.376 5.344-12.812l12.906-12.876 109.656 109.624-12.906 12.938zM909.282 960h-439.594c-4.718 0-9.218-1.812-12.656-5.156l-304.158-304.156c-3.25-3.438-5.062-7.844-5.094-12.5l-0.032-654.25c0-26.438 21.5-47.938 47.906-47.938h683.968c26.406 0 47.876 21.5 47.876 47.938l0.032 957.844c0.002 10.030-8.186 18.218-18.248 18.218zM891.062-27.5h-706.844v658.062l174.376 174.376h532.468v-832.438zM891.062 841.344h-496.062l82.218 82.218h413.844v-82.218zM383.718 237.376l5.75-7.876-64.75-64.718c-3.438-3.468-5.344-8.032-5.344-12.876 0-4.906 1.938-9.5 5.376-12.968 6.844-6.812 18.844-6.812 25.75 0.062l64.688 64.782 7.938-5.75c29.876-21.594 65.218-33 102.25-33 46.624 0 90.468 18.156 123.438 51.094 53.282 53.344 93.5 246.468 109 331.25l-0.032 0.062 0.688 3.906c1.188 6.032-0.656 12.094-4.938 16.344-4.25 4.25-10.218 6.124-16.156 5.094l-5.906-1.094-0.124 0.062c-85.968-15.75-276.656-55.812-329.468-108.688-61.034-61.062-68.628-155.938-18.16-225.686zM427.624 437.312c5.25 5.25 22.876 19.5 73.032 38.282 32.844 12.282 74.032 24.438 122.406 36.094 27.624 6.718 54.5 12.5 78.062 17.188l16.844 3.312-3.376-16.782c-4.718-23.594-10.468-50.468-17.156-78.094-11.718-48.5-23.906-89.624-36.124-122.312-18.718-50.124-33-67.812-38.282-73.124-26.094-26.062-60.782-40.376-97.718-40.376-36.906 0-71.624 14.312-97.688 40.376-53.906 53.874-53.906 141.562 0 195.436z" data-tags="biofuel" />
<glyph unicode="&#xe625;" d="M374.508 214.71h-181.754l52.064 90.156 52.126-30.032c2.344-1.25 5.282-2 8.282-2 10.062 0 18.25 8.156 18.25 18.188 0 1.938-0.312 3.782-0.906 5.532l-64.938 188.818c-2.438 8.25-9.624 13.656-17.658 13.656-1.218 0-2.438-0.124-3.594-0.376l-198.222-38.564c-7.718-1.844-13.468-9.156-13.468-17.624 0-6.75 3.75-12.906 9.688-16.094l47.75-27.594-78.72-136.472c-2.376-3.594-3.408-7.094-3.408-10.718 0-2.376 0.438-4.624 1.312-6.718l54.72-204.722c2.094-7.624 8.906-13 16.938-13.282l301.538-0.062c10.032 0 18.188 8.218 18.188 18.282v151.44c0 10.030-8.156 18.186-18.188 18.186zM37.72 249.024l94.19 163.098-37.784 21.718 133.722 26.062 44.344-128.692-40.658 23.44-151.72-262.536-42.094 156.91zM356.258 63.27h-251.098l66.5 115.034h184.598v-115.034zM1021.896 202.772l-150.784 261.13c-4.846 8.344-16.376 11.47-24.876 6.688l-131.19-75.782c-8.688-5.032-11.688-16.22-6.656-24.908l90.876-157.346h-104.094v60.218c-0.094 2.594-0.906 5.562-2.468 8.218-3.218 5.562-9.22 9.032-15.69 9.032-3.218 0-6.344-0.812-9.124-2.438-1.688-0.968-3.188-2.188-4.5-3.656l-130.94-150.504c-5.906-6.218-7-15.156-3-22.094 0.718-1.188 1.438-2.188 2.25-3.124l132.346-152.192c5.124-5.344 14.876-7 22-2.876 5.876 3.376 9.346 9.688 9.126 16.406v55.16l157.626 0.062c5.062 0.124 8.094 0.75 10.844 2.376 2.188 1.312 3.97 2.812 5.376 4.624l149.814 149.69c5.502 5.566 6.752 14.316 3.064 21.316zM847.112 61.208h-188.378v-43.534l-89.346 102.658 89.346 102.816v-47.002l303.224-0.124-114.846-114.814zM841.362 212.46l-92.314 159.876 99.626 57.564 125.596-217.504-132.908 0.064zM704.796 546.78c6.468 0 12.468 3.5 15.718 9.062 0.594 1.124 1.124 2.218 1.5 3.406l65.656 190.848c2.282 7.626-1.188 16.25-8.532 20.5-5.718 3.376-13.124 3.094-18.718-0.376l-47.812-27.564-78.848 136.472c-1.938 3.844-4.438 6.468-7.5 8.218-2.124 1.25-4.312 2-6.624 2.312l-204.564 54.942c-7.218 2-15.782-1.376-19.968-8.032l-150.784-261.1c-5.032-8.688-2.032-19.876 6.656-24.876l131.19-75.782c8.532-4.844 20.032-1.718 24.906 6.656l90.846 157.44 52.032-90.126-52.126-30.124c-2.25-1.438-4.376-3.624-5.876-6.218-5-8.656-2-19.844 6.688-24.844 1.75-1 3.468-1.688 5.094-2l196.098-38.126c2.032-0.502 3.5-0.688 4.968-0.688zM384.602 615.438l-99.596 57.594 125.534 217.474 66.408-115.126-92.346-159.942zM558.98 611.906l40.688 23.468-151.44 262.694 156.846-42.032 94.192-163.128 37.75 21.75-44.376-128.69-133.66 25.938z" data-tags="ecology" />
<glyph unicode="&#xe626;" d="M256.414 152.876c-11.812-4.968-76.25-94.812-76.25-139.312 0-42.782 34.782-77.562 77.5-77.562 42.782 0 77.562 34.782 77.562 77.562 0 44.498-64.436 134.342-78.812 139.312zM295.29 14.25c-0.188-21.624-17.062-38.312-37.624-38.312-20.5 0-37.376 16.688-37.594 37.25 0.594 7.812 6.156 27.124 23.5 56.688l14.094 23.25 14.124-23.188c17.342-29.626 22.936-48.938 23.5-55.688zM914.602 706.906l-259.376 0.062-3.438 4.562c-20.25 27.094-49.5 45.688-82.376 52.406l-9.188 1.844v98.5h93.718l2.688-7.656c10.938-30.906 40.344-51.688 73.124-51.688 42.718 0 77.532 34.75 77.532 77.562 0 42.688-34.812 77.5-77.532 77.5-32.812 0-62.188-20.75-73.124-51.688l-2.688-7.624h-223.84l-2.688 7.624c-10.938 30.94-40.312 51.69-73.124 51.69-42.75 0-77.5-34.812-77.5-77.5 0-42.812 34.75-77.562 77.5-77.562 32.782 0 62.188 20.782 73.124 51.688l2.688 7.656h93.718v-98.5l-9.156-1.844c-34.312-6.968-64.376-26.688-84.688-55.5l-2.812-4-4.812-0.75c-138-20.906-242.124-142.062-242.188-281.812v-11.438h-11.438c-42.782 0-77.546-34.812-77.546-77.562s34.766-77.532 77.546-77.532h177.938c42.75 0 77.532 34.782 77.532 77.532s-34.782 77.562-77.532 77.562h-11.438v11.438c0 34.688 13.562 67.312 38.094 91.876 14.624 14.624 31.938 25.312 51.438 31.688l7.344 2.438 5-5.938c26.124-31.188 64.344-49.032 104.938-49.032 43.25 0 83.062 19.844 109.188 54.344l3.438 4.562h259.438c10.532 0 18.718 8.188 18.718 18.218v118.656c-0.002 10.030-8.158 18.218-18.22 18.218zM729.758 923.562c22.656 0 41.094-18.438 41.094-41.062 0-22.656-18.438-41.094-41.094-41.094s-41.124 18.438-41.124 41.094c-0.002 22.624 18.468 41.062 41.124 41.062zM354.29 841.406c-22.656 0-41.124 18.438-41.124 41.094 0 22.624 18.468 41.062 41.124 41.062 22.688 0 41.124-18.438 41.124-41.062 0-22.656-18.438-41.094-41.124-41.094zM346.664 370.5c20.75 0 37.624-16.876 37.624-37.624s-16.876-37.624-37.624-37.624h-177.938c-20.75 0-37.656 16.876-37.656 37.624s16.906 37.624 37.656 37.624h177.938zM404.102 576.718c-21.156-8.344-40.188-20.876-56.532-37.218-31.406-31.406-48.718-73.188-48.782-117.624v-11.438h-82.188v11.438c0 66.376 25.876 128.812 72.812 175.75 28.624 28.688 63.938 50 102.124 61.75l16.938 5.188-2.25-17.562c-0.688-5.594-1.062-11.376-1.062-17.218 0-13.344 1.938-26.532 5.688-39.156l3-10.062-9.748-3.848zM542.040 529.312c-55.376 0-100.438 45.062-100.438 100.468s45.062 100.438 100.438 100.438 100.406-45.032 100.406-100.438-45.032-100.468-100.406-100.468zM896.414 588.312h-223.188l2.844 13.75c1.844 9.094 2.782 18.438 2.782 27.718 0 9.094-0.876 18.218-2.624 27l-2.75 13.718h222.938v-82.186z" data-tags="faucet" />
<glyph unicode="&#xe627;" d="M886.34 482.254l4.156 4.906c16.562 19.312 25.656 44 25.656 69.532 0 25.594-9.094 50.282-25.656 69.594l-4.156 4.906 2 6.094c7.844 24.124 6.782 50.468-2.968 74.124-9.75 23.594-27.624 42.938-50.312 54.5l-5.718 2.876-0.5 6.406c-1.938 25.344-12.968 49.22-31.098 67.314-18.032 18-41.938 29.062-67.312 31.094l-6.376 0.5-2.938 5.718c-11.438 22.594-30.812 40.468-54.5 50.282-23.312 9.688-49.624 10.812-74.032 2.876l-6.124-1.968-4.876 4.188c-38.468 33.032-100.658 33.094-139.22 0.062l-4.844-4.156-6.094 1.938c-24.562 7.876-50.782 6.75-74.094-2.938-23.656-9.812-43.032-27.688-54.468-50.282l-2.938-5.718-6.376-0.5c-25.376-2.032-49.284-13.094-67.346-31.126-18.094-18.062-29.124-41.938-31.062-67.282l-0.5-6.406-5.718-2.876c-22.688-11.562-40.562-30.906-50.312-54.5-9.782-23.656-10.844-50-3-74.124l2-6.094-4.156-4.906c-16.516-19.25-25.61-44-25.61-69.594 0-25.532 9.094-50.282 25.61-69.532l4.156-4.906-2-6.094c-7.844-24.124-6.782-50.468 3-74.124 9.782-23.624 27.624-42.938 50.282-54.5l5.718-2.906 0.5-6.406c1.968-25.312 13.032-49.188 31.124-67.312 18.25-18.252 41.5-29.002 67.284-31.064l6.406-0.5 2.906-5.75c11.468-22.594 30.844-40.438 54.532-50.282 19.782-8.188 41.312-10.344 63.25-5.812l13.782 2.844v-226.064c0-10.062 8.156-18.282 18.218-18.282h118.75c10.062 0 18.218 8.218 18.218 18.282v226.22l13.844-2.938c21.438-4.656 43.376-2.5 63.188 5.75 23.688 9.844 43.062 27.688 54.532 50.282l2.906 5.75 6.406 0.5c25.344 2 49.25 13.062 67.312 31.126 18.066 18.062 29.128 41.938 31.098 67.25l0.5 6.406 5.718 2.906c22.656 11.562 40.5 30.876 50.282 54.5 9.75 23.656 10.812 49.968 2.968 74.124l-1.998 6.092zM553.148-27.468h-82.314v187.064l14.282-3.624c17.906-4.562 35.844-4.562 53.75 0l14.282 3.624v-187.064zM852.622 501.036l-12.25-9.624 7.624-13.624c10.688-19.094 12.062-41.624 3.688-61.75-8.312-20.188-25.188-35.188-46.312-41.124l-15.004-4.188 1.844-15.468c2.594-21.75-4.782-43.094-20.218-58.532-15.312-15.344-37.032-23.062-58.688-20.188l-15.312 1.812-4.188-15.034c-5.968-21.124-20.938-37.968-41.124-46.282-20.032-8.312-43.188-6.812-61.812 3.75l-13.562 7.594-9.624-12.282c-13.532-17.188-33.812-27.062-55.688-27.062s-42.124 9.876-55.688 27.062l-9.624 12.282-13.594-7.656c-18.562-10.5-41.75-12-61.782-3.688-20.188 8.312-35.156 25.156-41.124 46.282l-4.188 14.97-15.5-1.812c-22.312-2.5-43.19 4.906-58.502 20.25-15.438 15.438-22.812 36.812-20.218 58.532l1.844 15.468-15 4.188c-21.124 5.938-38 20.938-46.312 41.124-8.376 20.124-7 42.656 3.688 61.75l7.624 13.624-12.25 9.688c-17.188 13.438-27.062 33.72-27.062 55.594 0 21.906 9.876 42.218 27.094 55.688l12.218 9.658-7.624 13.594c-10.688 19.124-12.062 41.624-3.688 61.782 8.312 20.188 25.188 35.188 46.312 41.124l15 4.188-1.844 15.468c-2.594 21.718 4.782 43.062 20.218 58.532 15.344 15.376 37.002 23.032 58.72 20.156l15.282-1.844 4.218 15.062c5.906 21.062 20.906 37.908 41.062 46.314 20.094 8.25 42.906 6.876 61.812-3.688l13.594-7.656 9.624 12.282c13.562 17.188 33.812 27.062 55.688 27.062s42.158-9.876 55.688-27.124l9.624-12.218 13.562 7.656c19.062 10.562 41.938 11.906 61.812 3.688 20.188-8.406 35.188-25.25 41.094-46.314l4.218-15.062 15.468 1.876c20.344 2.562 43.218-4.812 58.532-20.25 15.438-15.376 22.812-36.688 20.218-58.47l-1.844-15.468 15.004-4.188c21.124-5.938 38-20.938 46.312-41.124 8.376-20.156 7-42.656-3.688-61.782l-7.624-13.594 12.25-9.688c17.188-13.5 27.062-33.812 27.062-55.656s-9.874-42.098-27.060-55.66zM703.242 635.88l-0.032 4.718c-0.032 28.376-11.468 56.032-31.376 75.876-20.282 20.312-47.218 31.5-75.876 31.5h-4.718l-3.376 3.312c-20.062 20-47.688 31.438-75.876 31.438s-55.812-11.438-75.844-31.438l-3.344-3.312h-4.75c-28.688 0-55.624-11.188-75.876-31.438-19.938-19.906-31.376-47.562-31.406-75.938l-0.032-4.718-3.312-3.312c-20-20.032-31.47-47.688-31.47-75.876 0-28.156 11.47-55.782 31.47-75.814l3.312-3.344 0.032-4.718c0.032-28.344 11.468-56.032 31.406-75.968 20.25-20.188 47.188-31.376 75.844-31.376h4.718l3.376-3.312c20.062-20 47.688-31.468 75.876-31.468s55.814 11.468 75.844 31.468l3.344 3.312h4.75c28.656 0 55.624 11.188 75.906 31.406 19.906 19.906 31.344 47.594 31.376 75.938l0.032 4.718 3.312 3.344c20 20.032 31.468 47.658 31.468 75.814 0 28.188-11.468 55.844-31.468 75.876l-3.31 3.312zM673.18 499.972l-8.624-6.438 1.5-10.688c3.218-22.312-4.094-44.25-20-60.188-15.75-15.75-37.906-23.032-60.124-20.062l-10.75 1.532-6.5-8.624c-13.532-18.032-34.188-28.344-56.688-28.344s-43.156 10.312-56.688 28.344l-6.5 8.624-10.688-1.532c-22.438-3-44.376 4.282-60.156 20.062-15.906 15.938-23.218 37.876-20.032 60.188l1.5 10.688-8.624 6.438c-18.032 13.5-28.376 34.188-28.376 56.72 0 22.562 10.344 43.25 28.376 56.75l8.624 6.47-1.5 10.688c-3.188 22.312 4.124 44.25 20 60.156 15.876 15.844 38.312 23.5 60.376 19.968l10.5-1.438 6.5 8.624c13.5 18 34.188 28.376 56.688 28.376s43.188-10.376 56.72-28.438l6.468-8.562 10.718 1.5c20.562 3.344 44.312-4.188 60.124-20 15.906-15.938 23.218-37.876 20.032-60.188l-1.5-10.688 8.624-6.47c18.032-13.5 28.376-34.188 28.376-56.75-0.002-22.528-10.346-43.218-28.376-56.718zM511.992 574.974c-10.062 0-18.218-8.218-18.218-18.282 0-10.032 8.156-18.218 18.218-18.218 10.064 0 18.22 8.188 18.22 18.218-0.002 10.062-8.158 18.282-18.22 18.282z" data-tags="flower" />
<glyph unicode="&#xe628;" d="M650.718 841.344h-415.28c-10.032 0-18.188-8.188-18.188-18.218v-415.25c0-10.062 8.156-18.218 18.188-18.218h415.282c10.032 0 18.188 8.156 18.188 18.218v415.248c-0.002 10.032-8.158 18.22-18.19 18.22zM632.5 426.062h-378.844v378.876h378.844v-378.876zM818.188 841.344c-6.032 0-12.032-0.344-17.876-0.968l-12.75-1.438v102.844c0 10.032-8.156 18.218-18.188 18.218h-652.578c-10.046 0-18.204-8.188-18.204-18.218v-850.656h-41.124c-10.032 0-18.188-8.188-18.188-18.25v-118.688c0-10 8.156-18.188 18.188-18.188h771.218c10.032 0 18.188 8.188 18.188 18.188v118.688c0 10.062-8.156 18.25-18.188 18.25h-41.124v171.062l17.624-11.25c18.75-12 40.468-18.376 62.75-18.376 64.376 0 116.782 52.438 116.782 116.844v325.406c0 91.812-74.686 166.532-166.53 166.532zM135 923.562h616.124v-832.438h-616.124v832.438zM810.468 54.656v-82.156h-734.78v82.156h734.78zM948.312 349.406c0-44.282-36.062-80.344-80.376-80.344s-80.376 36.062-80.376 80.344v452.218l9.624 1.562c6.812 1.124 13.876 1.75 21 1.75 71.75 0 130.124-58.376 130.124-130.124v-325.406z" data-tags="gas_station1" />
<glyph unicode="&#xe629;" d="M611.458 841.418h-415.296c-10.032 0-18.188-8.218-18.188-18.282v-415.264c0-10.062 8.156-18.218 18.188-18.218h415.294c10.032 0 18.218 8.156 18.218 18.218v415.264c0.002 10.064-8.186 18.282-18.216 18.282zM593.238 426.124h-378.824v378.824h378.824v-378.824zM994.344 900.702v41.094c0 10.032-8.156 18.22-18.218 18.22s-18.188-8.188-18.188-18.22v-41.094h-61.316v41.094c0 10.032-8.188 18.22-18.188 18.22-10.062 0-18.218-8.188-18.218-18.22v-41.094h-29.656v-44.97c0-43.032 28.876-81.314 70.188-93.064l8.312-2.376v-410.824c0-44.348-36.062-80.41-80.376-80.41s-80.378 36.062-80.378 80.41v592.328c0 10.032-8.156 18.22-18.188 18.22h-652.598c-10.034 0-18.19-8.188-18.19-18.22v-850.68h-41.11c-10.062 0-18.22-8.19-18.22-18.19v-118.692c0-10.062 8.158-18.25 18.22-18.25h771.21c10.062 0 18.188 8.188 18.188 18.25v118.692c0 10-8.124 18.19-18.188 18.19h-41.126v171.066l17.624-11.25c18.69-11.938 40.408-18.282 62.754-18.282 64.406 0 116.816 52.406 116.816 116.816v410.826l8.312 2.376c41.314 11.748 70.19 50.030 70.19 93.062v44.972h-29.656zM95.738 923.576h616.16v-832.46h-616.16v832.46zM771.21 54.642v-82.156h-734.786v82.156h734.786zM987.5 852.2c-1.876-31.876-28.344-56.814-60.22-56.814-31.908 0-58.346 24.94-60.22 56.814l-0.688 12.094h121.816l-0.688-12.094z" data-tags="gas_station2" />
<glyph unicode="&#xe62a;" d="M511.984 960c-282.312 0-511.968-229.688-511.968-512s229.656-512 511.968-512 512 229.688 512 512-229.688 512-512 512zM160.828 768.688c4.844 5.312 9.782 10.438 14.876 15.562 43.594 43.624 94.468 77.938 151.188 101.938 18.718 7.968 38.406 14.812 58.5 20.376l50.468 13.968-40.032-33.782c-54.968-46.376-100.282-101.812-134.562-164.812l-4.594-8.5-9.156 3.124c-28.906 9.876-56.906 21.312-83.218 34.124l-13.812 6.656 10.342 11.346zM37.376 478.344c3.36 53.532 15.594 105.562 36.406 154.75 12.906 30.532 29.124 59.876 48.188 87.094l5.704 8.156 8.876-4.532c29.438-14.968 60.624-28.25 92.624-39.468l11.5-3.968-4.718-11.25c-25.532-60.968-40.094-125.624-43.438-192.062l-0.532-10.876h-155.376l0.766 12.156zM136.546 172.188l-8.876-4.532-5.704 8.156c-19.062 27.188-35.282 56.532-48.188 87.124-20.812 49.156-33.046 101.188-36.406 154.688l-0.766 12.156h155.376l0.532-10.844c3.344-66.468 17.906-131.094 43.438-192.094l4.718-11.218-11.5-4c-31.998-11.186-63.186-24.5-92.624-39.436zM385.39-10.562c-20.094 5.562-39.782 12.406-58.532 20.376-56.594 23.938-107.438 58.218-151.124 101.938-5.124 5.094-10.062 10.25-14.906 15.562l-10.344 11.312 13.812 6.688c26.75 13 54.75 24.5 83.25 34.094l9.124 3.094 4.594-8.468c34.218-62.844 79.532-118.344 134.594-164.812l39.906-33.718-50.374 13.934zM493.796-16.188l-17.624 11.282c-32.562 20.844-63 45.376-90.562 72.938-33.624 33.594-62.594 71.344-86.062 112.156l-7.532 13.062 14.656 3.75c56.282 14.25 115.25 22.532 175.25 24.624l11.876 0.406v-238.218zM493.796 258.438l-11.094-0.344c-67.532-2.156-133.906-11.968-197.344-29.094l-9.624-2.562-5.312 12.376c-24.062 56.938-38 117.124-41.376 178.876l-0.656 12.094h265.406v-171.346zM493.796 466.188h-265.406l0.656 12.094c3.376 61.782 17.312 121.968 41.376 178.906l3.876 9.188 11.062 0.594c63.438-17.124 129.812-26.906 197.344-29.094l11.094-0.312v-171.376zM493.796 673.968l-11.876 0.406c-60.124 2.062-119.094 10.376-175.25 24.688l-14.656 3.718 7.532 13.094c23.468 40.75 52.438 78.468 86.062 112.124 27.624 27.594 58.062 52.124 90.562 72.876l17.624 11.312v-238.218zM887.454 723.812l8.844 4.532 5.718-8.156c19.062-27.218 35.282-56.562 48.188-87.124 20.812-49.156 33.032-101.188 36.406-154.718l0.75-12.156h-155.344l-0.532 10.876c-3.344 66.438-17.938 131.094-43.438 192.062l-4.718 11.25 11.468 3.968c32.032 11.216 63.22 24.498 92.658 39.466zM638.61 906.562c20.124-5.562 39.812-12.438 58.5-20.376 56.688-24 107.562-58.312 151.156-101.938 5.094-5.124 10.032-10.25 14.906-15.562l10.344-11.344-13.812-6.656c-26.344-12.812-54.344-24.25-83.218-34.124l-9.156-3.124-4.594 8.5c-34.312 63-79.594 118.438-134.562 164.812l-40.062 33.812 50.498-14zM530.172 912.188l17.624-11.312c32.562-20.782 63-45.312 90.562-72.812 33.688-33.75 62.624-71.5 86.062-112.188l7.532-13.094-14.656-3.718c-56.156-14.312-115.124-22.624-175.25-24.688l-11.876-0.406v238.218zM530.172 637.562l11.124 0.312c67.5 2.188 133.906 11.968 197.312 29.094l9.624 2.594 5.312-12.376c24.062-56.938 38-117.124 41.376-178.906l0.688-12.094h-265.436v171.376zM530.172 429.782h265.438l-0.688-12.094c-3.376-61.75-17.312-121.938-41.376-178.876l-3.876-9.218-11.062-0.594c-63.406 17.124-129.812 26.938-197.312 29.094l-11.124 0.344v171.344zM530.172-16.188v238.22l11.876-0.406c60-2.094 118.968-10.376 175.25-24.624l14.624-3.75-7.5-13.062c-23.438-40.782-52.376-78.5-86.062-112.156-27.5-27.532-57.938-52.094-90.562-72.938l-17.626-11.284zM863.172 127.312c-4.876-5.312-9.812-10.468-14.876-15.562-43.75-43.718-94.624-78-151.188-101.938-18.75-7.968-38.438-14.812-58.5-20.376l-50.376-13.938 39.906 33.718c55.062 46.468 100.344 101.968 134.594 164.812l4.594 8.468 9.124-3.094c28.468-9.594 56.468-21.094 83.25-34.094l13.812-6.688-10.34-11.308zM986.61 417.624c-3.376-53.5-15.594-105.532-36.406-154.75-12.906-30.532-29.124-59.876-48.188-87.062l-5.718-8.156-8.844 4.532c-29.438 14.938-60.624 28.25-92.656 39.438l-11.468 4 4.718 11.218c25.5 61 40.094 125.624 43.438 192.094l0.532 10.844h155.344l-0.752-12.158z" data-tags="globe" />
<glyph unicode="&#xe62b;" d="M211.486 846.688c-3.438 3.406-8 5.312-12.906 5.312-4.844 0-9.406-1.906-12.844-5.344l-83.906-83.874c-7.094-7.124-7.094-18.688 0.032-25.812l12.876-12.812 109.594 109.656-12.846 12.874zM909.236 960h-439.562c-4.718 0-9.218-1.844-12.594-5.156l-3.156-3-301.032-301.126c-3.282-3.406-5.062-7.876-5.094-12.562l-0.032-2.75v-651.5c0-26.406 21.5-47.906 47.876-47.906h683.938c26.406 0 47.906 21.5 47.906 47.906v957.812c0 10.064-8.188 18.282-18.25 18.282zM891.018-27.532h-706.812v658.064l174.376 174.344h532.438v-832.408zM891.018 841.344h-496.062l82.282 82.188h413.782v-82.188z" data-tags="jerry_can" />
<glyph unicode="&#xe62c;" d="M1018.71 954.532c-3.5 3.468-8.062 5.376-12.968 5.376-1.094 0-2.156-0.094-3.218-0.282-153.658-26.032-665.006-121.314-798.946-255.222-147.47-147.5-156.094-386.378-19.656-543.754l6.968-8.062-185.596-185.564c-7.062-7.124-7.062-18.718 0-25.812 6.906-6.844 18.938-6.812 25.814 0.032l185.564 185.534 8.062-6.968c72.376-62.752 165.19-97.284 261.316-97.284 106.718 0 207.002 41.532 282.47 116.94 132.72 132.75 227.658 637.256 254.596 795.132l-0.032 0.062 0.624 3.812c1.066 5.872-0.81 11.872-4.998 16.060zM980.586 903.218c-11.968-67-31.75-169.626-57.968-278.064-77.596-321.222-146.002-426.004-179.846-459.848-34.75-34.782-75.158-61.596-120.096-79.784-43.532-17.624-89.5-26.562-136.624-26.562-47.126 0-93.096 8.938-136.658 26.562-35.282 14.282-68.094 34.126-97.47 58.94l-9.5 8.094 487.162 487.128c7.062 7.124 7.062 18.718 0 25.812-6.876 6.844-18.906 6.876-25.812-0.032l-487.134-487.126-8.032 9.5c-24.782 29.218-44.624 62.032-59 97.468-17.624 43.47-26.562 89.47-26.562 136.658s8.938 93.156 26.562 136.626c18.188 44.938 45.032 85.312 79.718 120.062 33.94 33.906 138.752 102.314 459.912 179.876 108.938 26.312 211.346 46 278.064 57.938l16.156 2.906-2.872-16.154z" data-tags="leaf" />
<glyph unicode="&#xe62d;" d="M769.032 924.156c-8.844 5.124-21.406 1.25-25.75-8.094l-177-306.718-8.844 2.968c-29 9.718-61.344 9.282-89.812-1.032l-9-3.282-178.814 309.596c-3.25 5.562-9.282 9.032-15.718 9.032-3.406 0-6.75-0.968-9.688-2.782-75.844-44.344-139.312-107.562-183.718-182.968-45-76.344-70.094-168.094-70.688-258.47 0-9.968 8.188-18.124 18.218-18.124h359.876l1.876-9.188c5.844-28.718 21.218-55.376 43.344-75.062l6.968-6.188-179.844-311.594c-1.624-2.812-2.5-5.938-2.5-9.156 0-6.5 3.532-12.562 9.124-15.812 77.25-44.376 165.406-67.906 254.968-67.906 89.376 0 177.312 23.344 254.312 67.5 6.282 3.656 9.812 9.718 9.812 16.218 0 3.25-0.906 6.468-2.562 9.282l-178.592 309.406 7.312 6.156c23.5 19.812 39.782 47.218 45.844 77.156l1.876 9.188h355.782c10.032 0 18.188 8.188 18.188 18.25-0.218 91.032-24.624 180.376-70.594 258.344-44.532 75.624-108.314 139.030-184.376 183.28zM378.094 500.75l-341.376-0.062 0.812 12.218c4.906 73.718 27.218 146.188 64.5 209.5 36.094 61.218 86.376 114.5 145.376 154.124l10.188 6.812 169.968-294.406-6.688-6.218c-21.094-19.624-35.25-44.782-40.906-72.812l-1.874-9.156zM732.968 59.968l-11-5.376c-64.718-31.938-137.312-48.812-209.938-48.812-72.594 0-145.188 16.876-209.938 48.812l-11 5.376 170.75 295.624 8.844-2.938c26.844-9 56.406-9.344 83.624-1l8.718 2.624 169.94-294.31zM514.032 382.094c-55.344 0-100.406 45-100.406 100.376 0 55.406 45.062 100.438 100.406 100.438 55.376 0 100.438-45.032 100.438-100.438-0.002-55.376-45.064-100.376-100.438-100.376zM987.344 500.688h-337.312l-1.876 9.156c-5.844 28.812-21.218 55.468-43.376 75.062l-7 6.188 168.688 292.25 10.188-6.812c59.032-39.624 109.282-92.906 145.406-154.124 37.312-63.344 59.594-135.812 64.468-209.5l0.814-12.22z" data-tags="radiation" />
<glyph unicode="&#xe62e;" d="M927.25 804.938c10.032 0 18.218 8.156 18.218 18.188v118.656c0 10.032-8.188 18.218-18.218 18.218h-830.5c-10.032 0-18.218-8.188-18.218-18.218v-118.656c0-10.032 8.188-18.188 18.218-18.188h41.062v-713.812h-41.062c-10.032 0-18.218-8.188-18.218-18.25v-118.624c0-10.062 8.188-18.25 18.218-18.25h830.5c10.032 0 18.218 8.188 18.218 18.25v118.624c0 10.062-8.188 18.25-18.218 18.25h-41.094v713.812h41.094zM909.032 54.656v-82.156h-794.094v82.156h794.094zM174.282 91.124v713.814h675.438v-713.812h-675.438zM114.938 841.406v82.156h794.094v-82.156h-794.094zM639.688 672.062c-10.812 6.376-21 2.218-25.876-6.406l-77.594-134.438-8.094 1.656c-9.968 2.062-20.876 2-31.938-0.344l-8.156-1.782-77.282 133.876c-5.25 10.124-17.906 13.188-26.688 7.25-37.406-22.156-68.25-53.094-89.876-89.812-22.688-38.5-34.782-82.562-34.906-127.5 0.032-10 8.218-18.124 18.218-18.188l160.406-0.062 2.812-7.312c3.282-8.562 8.062-16.344 14.062-23.25l5.438-6.156-77.532-134.282 0.032-0.094-3.188-5.438c-1.624-2.782-2.5-5.968-2.5-9.218 0-6.844 3.75-13.062 9.844-16.188 76.376-43.376 173.468-43.312 249.032-0.688l2.938 1.562c4.75 2.812 8.156 8.75 8.156 15.376 0 3.312-0.938 6.624-2.688 9.5l-79.75 138.094 5.656 6.218c6.594 7.188 11.718 15.468 15.188 24.562l2.844 7.312h158.188c10.062 0 18.282 8.188 18.282 18.25-0.124 44.938-12.218 89-34.906 127.5-21.842 37.128-53.028 68.222-90.122 90.002zM452.406 505.062c-5.844-7.312-10.25-15.532-13.124-24.438l-2.562-7.906h-140.594l1.968 13.156c4.124 27.624 13.344 53.812 27.438 77.688 13.532 23 30.968 43.062 51.906 59.688l10.376 8.312 69.5-120.406-4.908-6.094zM513.094 497.938c22.688 0 41.094-18.438 41.094-41.124 0-22.656-18.406-41.094-41.094-41.094-22.656 0-41.094 18.438-41.094 41.094 0 22.686 18.438 41.124 41.094 41.124zM603.688 257.624l-12.312-4.876c-25.312-10-52.032-15.032-79.376-15.032s-54.062 5.032-79.376 15.032l-12.312 4.876 71.688 124.126 7.876-1.312c7.938-1.312 16.594-1.5 24.718-0.25l7.718 1.094 71.376-123.658zM589.438 472.718l-2.562 7.906c-3.062 9.5-7.844 18.188-14.25 25.812l-5.124 6.124 68.688 119 10.376-8.312c20.938-16.624 38.376-36.688 51.906-59.688 14.124-23.968 23.376-50.124 27.468-77.75l1.906-13.094h-138.408z" data-tags="radioactive_wastes" />
<glyph unicode="&#xe62f;" d="M551.862 478.988c106.716 0.438 207.872 21.312 303.088 62.030l1.032 0.406c6.25 3.062 10.188 9.406 10.156 16.406-0.032 7.218-4.282 13.718-10.876 16.656l-0.156 0.062c-94.154 39.5-194.246 59.498-297.65 59.498h-3.782c-34.716-0.124-69.684-2.624-103.998-7.376l-8.75-1.188-3.438 8.124c-13.31 32-28.904 63.438-46.374 93.374-52.56 90.188-121.184 167.344-203.994 229.374-5.812 4.376-14 4.844-20.218 1.25-6.282-3.656-9.782-10.718-8.906-18 13-102.374 46.344-200.122 99.124-290.682 17.624-30.186 37.25-59.248 58.438-86.436l5.438-6.938-5.376-7.062c-21-27.406-40.376-56.624-57.688-86.81-51.748-90.654-84.31-188.684-96.624-291.37-0.906-7.376 2.624-14.5 9.062-18.156 5.124-2.938 11.624-3.156 16.876-0.594l1.062 4.124 5.188 0.124c39.686 30.532 76.436 64.998 109.186 102.374l20.062 22.938v-326.806c0-10.094 8.186-18.312 18.186-18.312h118.686c10.062 0 18.188 8.218 18.188 18.312v528.054l12.376-1c19.778-1.564 40.528-2.376 61.682-2.376zM288.618 667.172c-30.468 52.374-54.438 107.936-71.154 165.308-2.968 10.188-5.718 20.438-8.25 30.75l-9.218 37.5 28.186-26.438c7.718-7.25 15.312-14.75 22.688-22.312 41.75-42.936 78.31-91.124 108.78-143.31 11.468-19.686 22.218-40.312 31.938-61.218l5.938-12.782-13.718-3.188c-7.624-1.812-14.938-4.688-21.75-8.624s-12.938-8.874-18.156-14.624l-9.532-10.406-8.248 11.5c-13.566 18.968-26.192 38.438-37.504 57.844zM253.43 258.524c-7.344-7.656-14.876-15.218-22.5-22.532l-27.966-26.782 8.906 37.656c2.438 10.344 5.062 20.688 7.968 30.876 16.28 57.624 39.78 113.404 69.748 165.808 11.156 19.624 23.656 39.218 37.030 58.312l8.124 11.592 9.656-10.404c10.656-11.5 24.532-19.438 40.032-22.876l13.75-3.062-5.812-12.844c-9.5-20.968-20.062-41.688-31.406-61.53-30.032-52.53-66.216-101.028-107.53-144.214zM441.396-27.502h-82.248v358.742l1.968 2.876c11.124 16.5 21.75 33.5 31.468 50.562 9.532 16.688 18.594 34.060 27.032 51.686l21.78 45.624v-509.49zM421.834 520.298c-6.282-3.594-13.406-5.5-20.594-5.5-14.624 0-28.282 7.812-35.624 20.406-11.438 19.562-4.782 44.782 14.812 56.218 19 10.936 45.25 3.938 56.216-14.844 11.408-19.592 4.782-44.842-14.81-56.28zM471.114 519.612l4.124 13.5c4.624 15.156 4.562 31.124-0.188 46.188l-4.282 13.5 14.094 1.376c22.75 2.156 45.936 3.342 68.934 3.468l3.25 0.032c59.344 0 118.374-7.092 175.436-21.062 10.248-2.438 20.53-5.25 30.748-8.124l37.124-10.688-36.938-11.312c-10.188-3.094-20.468-5.906-30.78-8.532-57.968-14.718-118.030-22.282-178.466-22.562-0.062 0-0.062 0-0.124 0-23.874 0-46.34 1-68.872 2.968l-14.060 1.248z" data-tags="wind_turbine" />
<glyph unicode="&#xe630;" d="M886.282 215.624c0.562 1.812 0.876 3.688 0.876 5.532 0 10.032-8.188 18.218-18.25 18.218l-169.782 0.062c-10.032 0-18.218-8.218-18.218-18.282 0-10.032 8.188-18.218 18.218-18.218h145.094l-6.812-15.938c-17.812-41.562-43.062-78.938-75.188-111.062-32.5-32.5-70.312-57.968-112.376-75.75-34.062-14.438-70.062-23.312-106.938-26.406l-12.406-1.032v535.564h159.468c10.062 0 18.188 8.188 18.188 18.188 0 10.062-8.124 18.25-18.188 18.25h-159.468v202l8.594 2.218c47.312 12.156 80.376 54.844 80.376 103.812-0.002 59.096-48.064 107.22-107.188 107.22-59.094 0-107.188-48.124-107.188-107.218 0-48.968 33.062-91.656 80.376-103.812l8.624-2.218v-202h-160.062c-10.062 0-18.188-8.188-18.188-18.25 0-10 8.124-18.188 18.188-18.188h160.062v-535.624l-12.438 1.032c-37.124 3.094-73.312 12.032-107.5 26.468-42.062 17.782-79.876 43.25-112.376 75.75-32.094 32.124-57.376 69.468-75.188 111.062l-6.844 15.938h145.124c10.032 0 18.218 8.188 18.218 18.218 0 10.062-8.188 18.282-18.218 18.282l-169.812-0.062c-10.032 0-18.218-8.188-18.218-18.218 0-1.844 0.282-3.718 0.844-5.468l0.968-3.062-0.032-0.124c49.472-162.974 202.41-276.506 373.096-276.506h0.562c171.124 0 324.5 114.188 373.5 277.876l0.502 1.748zM441.5 852.782c0 39.032 31.782 70.782 70.782 70.782 39.032 0 70.782-31.75 70.782-70.782s-31.75-70.718-70.782-70.718c-39-0.002-70.782 31.686-70.782 70.718z" data-tags="anchor" />
<glyph unicode="&#xe631;" d="M867.938 960h-711.876c-26.374 0-47.874-21.5-47.874-47.938v-839.188c0-10.062 8.156-18.218 18.218-18.218h70.75v-41.156c0-42.718 34.782-77.5 77.562-77.5 42.75 0 77.532 34.782 77.532 77.5v41.156h319.5v-41.156c0-42.718 34.782-77.5 77.532-77.5 42.782 0 77.562 34.782 77.562 77.5v41.156h70.782c10.032 0 18.188 8.156 18.188 18.218v839.188c-0.002 26.438-21.502 47.938-47.876 47.938zM144.624 745.562h349.156v-357.876h-349.156v357.876zM315.812 13.5c0-22.656-18.438-41.062-41.094-41.062-22.688 0-41.124 18.406-41.124 41.062v41.156h82.218v-41.156zM790.406 13.5c0-22.656-18.438-41.062-41.124-41.062-22.656 0-41.094 18.406-41.094 41.062v41.156h82.218v-41.156zM879.376 91.062h-734.752v260.188h734.75v-260.188zM879.376 387.688h-349.158v357.874h349.156v-357.874zM879.376 782h-734.752v141.5h734.75v-141.5zM363.688 834.562h296.624c10.062 0 18.218 8.188 18.218 18.218s-8.156 18.218-18.218 18.218h-296.624c-10.062 0-18.218-8.188-18.218-18.218s8.154-18.218 18.218-18.218zM304.376 143.594c42.75 0 77.532 34.782 77.532 77.562 0 42.718-34.782 77.532-77.532 77.532s-77.532-34.812-77.532-77.532c0-42.78 34.78-77.562 77.532-77.562zM304.376 262.25c22.656 0 41.094-18.438 41.094-41.094s-18.438-41.094-41.094-41.094-41.094 18.438-41.094 41.094 18.436 41.094 41.094 41.094zM719.624 143.594c42.75 0 77.532 34.782 77.532 77.562 0 42.718-34.782 77.532-77.532 77.532s-77.532-34.812-77.532-77.532c0.002-42.78 34.784-77.562 77.532-77.562zM719.624 262.25c22.656 0 41.094-18.438 41.094-41.094s-18.438-41.094-41.094-41.094-41.094 18.438-41.094 41.094 18.438 41.094 41.094 41.094z" data-tags="bus" />
<glyph unicode="&#xe632;" d="M196.188 257.984c42.75 0 77.532 34.782 77.532 77.5 0 42.782-34.782 77.594-77.532 77.594s-77.532-34.812-77.532-77.594c0-42.718 34.782-77.5 77.532-77.5zM196.188 376.64c22.656 0 41.094-18.468 41.094-41.156 0-22.656-18.438-41.094-41.094-41.094-22.688 0-41.124 18.438-41.124 41.094-0.002 22.688 18.436 41.156 41.124 41.156zM827.812 257.984c42.75 0 77.532 34.782 77.532 77.5 0 42.782-34.782 77.594-77.532 77.594s-77.532-34.812-77.532-77.594c0.002-42.718 34.782-77.5 77.532-77.5zM827.812 376.64c22.656 0 41.094-18.468 41.094-41.156 0-22.656-18.438-41.094-41.094-41.094-22.688 0-41.124 18.438-41.124 41.094 0 22.688 18.436 41.156 41.124 41.156zM976.094 502.078h-62.25v284.782c0 6.312-3.188 12.094-8.562 15.468-119.782 70.468-255.25 107.25-393.282 107.25-139.032 0-275.344-37.312-394.344-107.876l-0.876-0.562c-5.376-3.312-8.594-9.062-8.594-15.438v-283.624h-60.28c-26.406 0-47.906-21.5-47.906-47.938v-266.938c0-10.062 8.188-18.25 18.218-18.25h70.75v-75.376c0-59.062 48.124-107.156 107.218-107.156s107.218 48.094 107.218 107.156v75.376h417.188v-75.376c0-59.062 48.124-107.156 107.218-107.156s107.218 48.094 107.218 107.156v75.376h70.75c10.032 0 18.218 8.188 18.218 18.25v266.938c0.004 26.438-21.496 47.938-47.902 47.938zM144.624 775.266l5.812 3.282c49.032 27.718 101.312 49.656 155.312 65.344 132.906 38.688 278.718 38.75 411.468 0.344 53.812-15.594 105.75-37.344 154.344-64.594l5.844-3.25v-274.312h-732.78v273.186zM266.968 93.578c0-39-31.75-70.75-70.782-70.75s-70.75 31.75-70.75 70.75v75.376h141.532v-75.376zM898.562 93.578c0-39-31.718-70.75-70.75-70.75s-70.782 31.75-70.782 70.75v75.376h141.532v-75.376zM987.532 205.454h-951.064v260.124h951.062v-260.124z" data-tags="car" />
<glyph unicode="&#xe633;" d="M957.226 701h-0.032l-3.344 5.812c-44.438 75.624-108 139.094-183.75 183.438l3.062 11.5-6.312-9.562c-77.374 44.374-165.404 67.812-254.842 67.812-282.312 0-511.984-229.688-511.984-512 0-282.314 229.672-512 511.984-512 282.314 0 511.968 229.686 511.968 512 0 88.812-23.064 176.282-66.75 253zM848.29 111.688c-43.688-43.718-94.562-78.002-151.188-101.876-58.562-24.844-120.876-37.376-185.094-37.376s-126.532 12.532-185.094 37.376c-56.624 23.874-107.5 58.156-151.188 101.938-43.656 43.594-77.954 94.468-101.938 151.124-24.764 58.626-37.342 120.908-37.342 185.126 0 64.188 12.578 126.5 37.344 185.124 3.734 8.75 7.718 17.376 11.92 25.874l5.408 10.938 104.546-60.342c12.124-7.408 27.876 2.094 27.876 15.468 0 6.688-3.688 12.812-9.624 16.062l-104.564 60.376 6.782 10.156c17.344 25.968 37.406 50.406 59.594 72.594 22.25 22.312 46.688 42.312 72.624 59.562l10.156 6.812 59.906-103.812c3.376-6.124 9.5-9.812 16.188-9.812 10.062 0 18.218 8.188 18.218 18.188 0 3.282-0.812 6.312-2.406 9.094l-60.374 104.594 10.968 5.406c8.468 4.188 17.094 8.156 25.906 11.906 49.312 20.844 101.376 33.062 154.718 36.436l12.154 0.718v-120.656c0-10.032 8.19-18.218 18.22-18.218s18.22 8.186 18.22 18.218v120.656l12.156-0.718c53.342-3.376 105.404-15.592 154.716-36.436 8.876-3.75 17.562-7.782 26.188-12.032l10.938-5.406-60.312-104.438c-1.592-2.812-2.404-5.844-2.404-9.124 0-10 8.154-18.188 18.216-18.188 6.688 0 12.812 3.688 16 9.562l60 103.936 10.188-6.812c25.876-17.25 50.218-37.25 72.376-59.438 22.342-22.376 42.438-46.844 59.688-72.718l6.752-10.156-104.096-60.094c-6.156-3.406-9.842-9.532-9.842-16.218 0-13.376 16.56-22.5 27.624-15.624l104.562 60.374 5.376-10.938c4.188-8.5 8.188-17.062 11.876-25.75 24.782-58.624 37.344-120.938 37.344-185.124 0-64.218-12.562-126.5-37.344-185.124-24-56.658-58.282-107.532-101.938-151.188zM537.854 402.438l-7.624 2.688v249.25c0 10.030-8.19 18.218-18.22 18.218s-18.22-8.188-18.22-18.218v-249.25l-7.624-2.688c-30.938-10.938-51.688-40.282-51.688-73.094 0-42.782 34.75-77.594 77.532-77.594 42.75 0 77.532 34.812 77.532 77.594-0.002 32.812-20.784 62.156-51.688 73.094zM512.008 288.248c-22.658 0-41.124 18.438-41.124 41.096s18.466 41.094 41.124 41.094 41.124-18.436 41.124-41.094-18.466-41.096-41.124-41.096z" data-tags="dashboard" />
</font>
</defs>
</svg>
